<svg xmlns="http://www.w3.org/2000/svg" viewBox="0 0 400 503.41"><defs><style>.g{fill:#65a0ef;}.h{fill:#fff;}.i{fill:#22ba02;}</style></defs><g id="a"></g><g id="b"><g id="c"><g><path class="i" d="M0,44.01v-2.76l3-.24,.81-1V19.48H0v-2.25l3.81-1.76c-.05-2.57,.46-5.11,1.49-7.46,1.02-2.19,2.58-4.09,4.54-5.51,1.05-.78,2.22-1.4,3.46-1.83C14.49,.23,15.74,0,17,0c1.43-.06,2.83,.35,4,1.18,.99,.74,1.56,1.91,1.52,3.15,0,.8-.32,1.57-.88,2.15-.71,.69-1.56,1.21-2.5,1.52L13.4,2.94c-.87,.97-1.47,2.15-1.74,3.43-.41,1.82-.61,3.68-.57,5.55v4h8.05v3.55H11.14v20.54l.95,.9,4,.29v2.71L0,44.01Z"></path><path class="i" d="M29.14,14.63h2.86v25.55l.87,.9,3.32,.23v2.7h-15.5v-2.7l3.2-.23,.84-.9V19.77h-3.9v-2.37l8.31-2.77Zm-.63-13.48c1.18-.05,2.33,.39,3.18,1.22,.82,.82,1.27,1.95,1.24,3.11,.04,1.19-.4,2.36-1.23,3.22-1.68,1.72-4.43,1.75-6.15,.07-.85-.84-1.33-1.99-1.31-3.18-.03-1.18,.41-2.32,1.22-3.17,.79-.84,1.9-1.31,3.05-1.27Z"></path><path class="i" d="M46.27,.28h2.83V17.17c1.44-.82,2.96-1.49,4.53-2,1.29-.42,2.64-.64,4-.65,3.22-.09,6.3,1.29,8.37,3.75,2.26,2.7,3.42,6.15,3.27,9.67,.08,3.13-.75,6.21-2.39,8.88-1.67,2.57-4.07,4.58-6.88,5.79-1.31,.51-2.69,.85-4.09,1-1.99,.24-3.99,.35-6,.33h-1.59l-6.56-.11V5.36h-4.27V3.01L46.27,.28Zm2.83,40.48h1.9c3.58,0,6.21-.92,7.9-2.76,1.68-1.84,2.53-4.7,2.53-8.59,0-3.33-.75-5.89-2.23-7.67-1.58-1.83-3.93-2.82-6.35-2.67-.56,0-1.11,.04-1.66,.12-.61,.08-1.29,.19-2.06,.34l-.03,21.23Z"></path><path class="i" d="M100.23,36.63v4.38c-1.93,1.11-3.99,1.98-6.13,2.6-2.02,.56-4.1,.85-6.19,.86-3.95,.18-7.8-1.29-10.62-4.06-2.67-2.72-4-6.31-4-10.77-.16-4.07,1.31-8.03,4.09-11,2.75-2.84,6.58-4.39,10.53-4.26,3.9,0,6.93,1.17,9.08,3.51s3.23,5.63,3.24,9.86v1.12h-19.38v.14c0,3.37,.85,6.02,2.55,7.94,1.78,1.96,4.35,3.03,7,2.89,1.62-.02,3.23-.3,4.77-.83,1.78-.59,3.47-1.39,5.06-2.38Zm-7.8-10.89v-.63c.13-1.94-.34-3.86-1.33-5.53-.84-1.27-2.29-2-3.81-1.92-1.72-.05-3.35,.76-4.36,2.15-1.19,1.75-1.81,3.82-1.79,5.93h11.29Z"></path><path class="i" d="M103.78,44.01v-2.7l3.15-.23,.83-.9V19.77h-4.27v-2.37l8.69-2.77h2.82l-.26,6c1-1.07,2.11-2.12,3.26-3.13,1.16-1.03,2.37-1.99,3.64-2.87,.33-.06,.59-.1,.79-.12h.57c.65,0,1.29,.09,1.92,.25,.7,.17,1.37,.43,2,.76l-.75,8.17h-3.09c-.37-.68-.93-1.23-1.6-1.61-.69-.37-1.46-.55-2.24-.52-.62,.02-1.23,.17-1.8,.42-.84,.34-1.66,.75-2.44,1.22v17l.86,.9,4.22,.23v2.68h-16.3Z"></path><path class="g" d="M153.49,37.7v3.31c-1.7,1.11-3.55,1.98-5.49,2.58-1.84,.58-3.76,.88-5.69,.89-3.61,.13-7.09-1.33-9.53-4-2.51-2.9-3.82-6.64-3.65-10.47-.17-3.99,1.22-7.9,3.87-10.89,2.5-2.78,6.1-4.31,9.84-4.2,2.92-.15,5.77,.98,7.78,3.1,1.92,2.09,2.87,4.93,2.87,8.53v1.1c0,.24-.03,.48-.07,.72h-19.18v.64c0,3.72,.89,6.66,2.69,8.82,1.78,2.16,4.46,3.36,7.25,3.25,1.5-.02,2.98-.3,4.38-.83,1.73-.66,3.39-1.52,4.93-2.55Zm-5.31-11.78v-.91c.14-1.95-.42-3.89-1.57-5.47-1.15-1.31-2.84-2.01-4.58-1.9-1.96,0-3.83,.87-5.09,2.37-1.48,1.66-2.33,3.78-2.41,6l13.65-.09Z"></path><path class="g" d="M157.65,44.01v-2.18l3.49-.29,1-1V4.41h-4.57v-1.85l7.24-2.11h2.25V40.58l1.07,1,3.38,.29v2.14h-13.86Z"></path><path class="g" d="M199.24,37.7v3.31c-1.7,1.12-3.54,2-5.47,2.63-1.84,.58-3.76,.88-5.69,.89-3.61,.13-7.09-1.33-9.52-4-2.53-2.91-3.84-6.67-3.66-10.52-.17-3.97,1.2-7.86,3.83-10.84,2.5-2.78,6.1-4.32,9.84-4.2,2.92-.17,5.76,.94,7.79,3.04,1.92,2.08,2.88,4.93,2.88,8.53v1.1c0,.24,0,.48-.07,.72h-19.17v.65c0,3.72,.89,6.66,2.69,8.82,1.79,2.18,4.5,3.39,7.31,3.26,1.5-.02,2.98-.3,4.38-.83,1.71-.68,3.34-1.53,4.86-2.56Zm-5.31-11.78v-.91c.13-1.95-.43-3.89-1.58-5.47-1.15-1.31-2.83-2.01-4.57-1.9-1.96-.01-3.83,.85-5.1,2.35-1.47,1.64-2.32,3.74-2.41,5.94h13.66Z"></path><path class="g" d="M226.87,41.48c-1.54,.9-3.17,1.63-4.87,2.17-1.54,.47-3.13,.71-4.74,.72-3.65,.15-7.18-1.31-9.65-4-2.44-2.67-3.66-6.21-3.66-10.64-.18-3.95,1.21-7.8,3.88-10.72,2.64-2.77,6.35-4.27,10.17-4.1,2.27-.13,4.53,.42,6.49,1.57,1.49,.88,2.39,2.5,2.37,4.23,.04,.85-.29,1.68-.9,2.28-.65,.6-1.51,.91-2.39,.87-.45,0-.9-.08-1.33-.23-.47-.17-.91-.4-1.33-.67v-4.84c-.44-.26-.92-.47-1.41-.62-.47-.14-.96-.21-1.45-.21-2.52-.05-4.9,1.18-6.31,3.27-1.71,2.59-2.54,5.65-2.38,8.74,0,3.6,.9,6.43,2.7,8.5,1.85,2.09,4.56,3.23,7.35,3.1,1.29,0,2.56-.21,3.78-.62,1.32-.46,2.58-1.09,3.73-1.89l-.05,3.09Z"></path><path class="g" d="M233.31,19.07h-3.73v-1.84l3.9-1.71,2.52-5.51h2.19v6.3h9v2.77h-9v15.6c0,2.56,.36,4.27,1.07,5.15s2,1.31,3.84,1.31c.67,0,1.33,0,2-.11,.71-.09,1.42-.21,2.12-.38v2.2c-1.31,.42-2.65,.76-4,1-1.25,.22-2.52,.33-3.79,.34-2.28,0-3.87-.43-4.77-1.29-.92-.86-1.37-2.42-1.37-4.69l.02-19.14Z"></path><path class="g" d="M249.62,44.01v-2.18l3.14-.29,1-1V19.19h-4.16v-1.85l6.87-2.11h2.25v5.55c1-1,2-2,3-2.9s2.19-1.87,3.34-2.87c.18-.06,.38-.1,.57-.11h.91c.59,0,1.18,.06,1.76,.19,.62,.13,1.22,.33,1.79,.59v5.08h-1.88c-.36-.45-.82-.81-1.34-1.06-.53-.25-1.11-.37-1.69-.36-1.08,.04-2.13,.41-3,1.06-1.3,.92-2.46,2.02-3.45,3.27v16.9l1,1,4.13,.29v2.15h-14.24Z"></path><path class="g" d="M286.34,14.92c3.74-.12,7.35,1.37,9.91,4.1,2.63,2.91,4.01,6.73,3.86,10.64,.15,3.92-1.25,7.74-3.88,10.64-5.37,5.45-14.15,5.52-19.6,.15l-.15-.15c-2.63-2.91-4.01-6.73-3.85-10.65-.16-3.91,1.21-7.73,3.82-10.64,2.54-2.74,6.15-4.23,9.89-4.09Zm0,2.54c-2.43-.03-4.69,1.24-5.93,3.33-1.61,2.68-2.39,5.78-2.24,8.91-.16,3.13,.63,6.23,2.25,8.91,2.04,3.29,6.35,4.3,9.64,2.26,.92-.57,1.69-1.34,2.26-2.26,1.5-2.21,2.25-5.19,2.25-8.92,.15-3.12-.64-6.22-2.27-8.89-1.26-2.09-3.52-3.36-5.96-3.34Z"></path><path class="g" d="M304.07,44.01v-2.18l3.2-.29,1-1V19.19h-4.21v-1.85l6.87-2.11h2.25v3.24c1.84-1.06,3.75-1.98,5.72-2.76,1.21-.49,2.5-.76,3.81-.79,2.22-.15,4.39,.7,5.92,2.31,1.37,1.54,2.06,3.77,2.05,6.7v16.65l1,1,3.18,.29v2.14h-12.92v-2.18l2.83-.29,1-1v-15.6c0-2.22-.46-3.79-1.37-4.71-.92-.92-2.45-1.39-4.61-1.39-1.04,0-2.07,.17-3.06,.48-1.23,.37-2.42,.86-3.55,1.46v19.8l1,1,2.83,.29v2.14h-12.94Z"></path><path class="g" d="M344.75,15.23h2.31v25.35l1,1,3.18,.29v2.14h-13.24v-2.18l3.11-.29,1-1V19.19h-4.11v-1.85l6.75-2.11Z"></path><path class="g" d="M377.55,41.48c-1.54,.9-3.18,1.63-4.88,2.17-1.54,.47-3.13,.71-4.74,.72-3.65,.15-7.18-1.31-9.65-4-2.44-2.67-3.66-6.21-3.66-10.64-.17-3.95,1.23-7.8,3.89-10.72,2.63-2.76,6.31-4.26,10.12-4.11,2.27-.13,4.53,.42,6.49,1.57,1.49,.88,2.39,2.5,2.37,4.23,.04,.85-.29,1.68-.9,2.28-.65,.6-1.51,.91-2.39,.87-.45,0-.9-.08-1.33-.23-.47-.18-.91-.4-1.33-.67v-4.83c-.44-.26-.92-.47-1.41-.62-.47-.14-.96-.21-1.45-.21-2.52-.05-4.89,1.18-6.3,3.27-1.7,2.59-2.54,5.65-2.38,8.74,0,3.6,.9,6.43,2.7,8.5,1.86,2.09,4.56,3.23,7.35,3.1,1.29,0,2.56-.21,3.78-.62,1.32-.46,2.58-1.09,3.73-1.89v3.09Z"></path><path class="g" d="M399.14,16.22v6.69h-2.91l-.46-4.18c-.72-.4-1.47-.72-2.26-.95-.69-.22-1.41-.33-2.13-.32-1.3-.08-2.59,.31-3.61,1.12-.89,.8-1.37,1.96-1.3,3.15-.04,1.03,.32,2.03,1,2.8,1.17,1.09,2.52,1.96,4,2.57,.31,.16,.78,.38,1.42,.67,1.72,.72,3.35,1.65,4.85,2.77,.73,.57,1.31,1.32,1.67,2.18,.4,.91,.6,1.9,.58,2.9,.12,2.51-.97,4.93-2.93,6.51-1.95,1.57-4.66,2.35-8.13,2.35-1.37,0-2.73-.1-4.08-.3-1.23-.19-2.44-.5-3.6-.94v-7.68h2.83l.72,5c.78,.46,1.62,.82,2.5,1.07,.82,.23,1.68,.34,2.53,.35,1.45,.06,2.87-.41,4-1.32,1.82-1.68,2.03-4.47,.48-6.4-.67-.78-2.33-1.78-5-3-3-1.33-5-2.59-6-3.76-1.08-1.19-1.66-2.75-1.61-4.36-.12-2.37,.9-4.65,2.75-6.13,1.83-1.44,4.4-2.16,7.73-2.16,1.24-.01,2.49,.1,3.71,.33,1.12,.22,2.21,.57,3.25,1.04Z"></path><circle class="g" cx="342.61" cy="5.55" r="3.65"></circle></g><g id="d"><g id="e"><path class="g" d="M342.07,162.01c-78.1-78.1-204.75-78.1-282.85,0C21.73,199.51,0,250.37,0,303.41v.41H11.88v-.41c0-103.77,85.1-188.11,188.8-188.11s187.44,84.41,187.44,188.11-83.74,188.12-187.44,188.12h-.41v11.88h.41c110.42,0,199.32-89.51,199.32-200,0-53.04-20.37-103.9-57.93-141.4Z"></path><path class="i" d="M200.68,463.48c-88.29,0-160.75-71.85-160.75-160.07S112.39,143.34,200.68,143.34v-11.88c-94.94,0-172.63,77-172.63,172,0,45.55,18.81,89.25,51.07,121.55,67.13,67.16,175.99,67.17,243.15,.04l.04-.04c32.26-32.3,49.69-76,49.69-121.6h-11.93c0,88.29-71.07,160.07-159.39,160.07Z"></path></g></g><g id="f"><path class="i" d="M190.2,210.18c7.62,0,14.5,.03,21.03,.09,4.44,.04,9.15,1.92,13.18,3.75,11.84,5.39,20.46,12.4,26.35,21.41,3.22,4.93,5.13,9.71,5.84,14.61l.33,2.29c.74,5.17,1.51,10.52,2.49,15.86,2.11,11.41,8.82,17.61,20.52,18.97,2.02,.23,3.92,.33,5.76,.43l.36,.02c1.34,.07,2.65,.11,3.92,.16,2.15,.07,4.18,.14,6.07,.33-.02,4.15-.03,8.29-.04,12.44-.03,14.43-.06,29.36-.81,43.86-.64,12.36-6.08,23.53-16.17,33.18-10.59,10.13-23.35,15.06-39.02,15.06h-.15c-4.47,0-8.95-.01-13.42-.01-3.6,0-7.2,0-10.79,0v-.23h-10.99c-4.39,0-8.82,.07-13.1,.13-4.2,.06-8.53,.13-12.76,.13-5.89,0-10.73-.13-15.22-.41-17.36-1.07-30.79-8.96-41.06-24.1-5.89-8.7-8.76-18.61-8.77-30.32,0-19.98-.01-46.29,0-72.64,0-16.7,5.87-30.14,17.9-41.09,10.17-9.25,22.15-13.78,36.6-13.85,8.61-.04,15.58-.06,21.94-.06m-.86,30.85h-.5c-1.29,0-2.57,0-3.86,0-1.63,0-3.25,0-4.88,0-1.62,0-3.23,0-4.85,0-2.04,0-4.08,0-6.12-.01h-.15c-9.24,0-14.94,4.27-18.09,7.86-5.93,6.75-7.49,15.46-4.27,23.9,3.33,8.73,10.83,14.23,20.07,14.7,2.43,.12,5.01,.18,8.13,.18,.16,0,.31,0,.47,0h16.26l5.28,.02c2.32,0,4.64,0,6.96-.01,8.88-.04,16.19-4.14,20.59-11.55,4.14-6.98,4.35-15.44,.57-22.63-3.76-7.15-10.82-11.73-18.88-12.26-2.47-.16-5.05-.24-8.37-.24-1.43,0-2.86,.01-4.29,.03-1.36,.01-2.72,.03-4.08,.03m-5.83,120.47c3.34,0,6.69,0,10.03,0,3.33,0,6.67,0,10,0h12.71c2.49,0,4.98,0,7.47,0h.62c1.54,0,3.08,.01,4.63,.03,1.61,.01,3.21,.03,4.82,.03,3.64,0,6.47-.07,9.16-.23,7.3-.43,13.8-4.18,17.81-10.29,4.03-6.14,4.93-13.96,2.4-20.92-3.44-9.47-12.08-15.13-23.11-15.13-9.76,0-19.52,0-29.28,0-13.7,0-27.39,0-41.09,.01-1.65,0-3.13,.09-4.52,.26-10.5,1.31-18.7,9.56-19.94,20.08-.8,6.8,1.15,13.26,5.51,18.19,4.49,5.09,10.95,7.91,18.2,7.96,4.28,.03,8.91,.04,14.58,.04m6.7-162.32c-7.33,0-14.67,.03-22,.06-16.71,.09-31.55,5.45-43.95,16.71-14.45,13.13-21.49,29.69-21.5,49.22-.01,24.22,0,48.44,0,72.65,0,13.2,3.21,25.5,10.66,36.49,11.86,17.5,28.39,27.61,49.48,28.91,5.29,.33,10.59,.43,15.9,.43,8.61,0,17.24-.27,25.85-.27v.24c7.26,0,14.52,0,21.79,0,4.47,0,8.93,0,13.4,.01h.17c17.89,0,33.59-5.63,46.63-18.12,11.57-11.08,18.71-24.62,19.54-40.56,1-19.11,.75-38.28,.87-57.42,.04-6.01-3.52-9.72-9.54-10.36-3.6-.39-7.25-.37-10.88-.56-1.81-.1-3.63-.18-5.43-.39-6.87-.79-9.72-3.28-10.97-10.04-1.08-5.88-1.9-11.8-2.75-17.72-1-6.96-3.72-13.24-7.52-19.06-7.65-11.71-18.43-19.68-31-25.4-5.6-2.55-11.41-4.69-17.64-4.74-7.04-.06-14.08-.09-21.13-.09h0Zm-.86,52.85c2.79,0,5.58-.05,8.37-.05,2.55,0,5.1,.04,7.64,.21,9.03,.6,14.17,10.54,9.57,18.31-2.47,4.17-6.34,6.14-11.17,6.16-2.31,0-4.61,.01-6.92,.01-3.52,0-7.03,0-10.55,0v-.1c-3.82,0-7.65,.09-11.47,.09-2.53,0-5.05-.04-7.57-.17-4.91-.25-8.57-2.98-10.35-7.63-1.75-4.59-1.06-8.95,2.25-12.71,2.6-2.95,5.97-4.12,9.83-4.12h.09c2.06,.01,4.11,.01,6.17,.01,3.24,0,6.49,0,9.73,0,1.28,0,2.55,0,3.83,0,.18,0,.35,0,.53,0h0Zm-5.83,98.47c-4.83,0-9.67,0-14.5-.04-8.23-.06-13.77-6.13-12.86-13.86,.65-5.47,4.9-9.78,10.37-10.46,1.05-.13,2.11-.17,3.17-.17,13.7,0,27.39-.01,41.09-.01,9.76,0,19.52,0,29.27,0,6.39,0,10.95,2.85,12.78,7.89,2.8,7.7-2.33,15.98-10.53,16.47-2.83,.17-5.67,.21-8.51,.21-3.15,0-6.3-.05-9.44-.05-.22,0-.43,0-.65,0-2.48,0-4.96,0-7.45,0-3.87,0-7.75,0-11.62,0-.36,0-.73,0-1.09,0-6.68,0-13.36,.02-20.04,.02h0Z"></path></g><g><path class="h" d="M119.4,58.94c2.19,0,4.23,.2,5.99,1.06,2.11,1.02,3.48,2.66,3.48,5.75,0,3.29-2.43,5.2-4.19,5.91v.08c3.48,.78,5.79,3.05,5.79,6.49,0,2.93-1.37,5.05-3.21,6.22-1.68,1.06-4.07,1.49-6.65,1.49h-9.86v-27h8.65Zm2.82,10.6c.94-.59,1.49-1.53,1.49-3.13,0-2.35-1.84-3.48-4.46-3.48h-3.4v7.28h3.17c1.41,0,2.39-.16,3.21-.67Zm1.6,11.66c.9-.59,1.49-1.8,1.49-3.21,0-1.49-.67-2.5-1.68-3.21s-2.07-.86-3.64-.86h-4.15v8.02h4.38c1.29,0,2.54-.04,3.6-.74Z"></path><path class="h" d="M154.86,58.94v22.77h9.43v4.23h-14.48v-27h5.05Z"></path><path class="h" d="M180.22,72.47c0-8.69,6.34-13.93,14.12-13.93s14.12,5.24,14.12,13.93-6.3,13.93-14.12,13.93-14.12-5.24-14.12-13.93Zm14.12-9.51c-5.01,0-8.88,3.6-8.88,9.47s3.91,9.51,8.88,9.51,8.88-3.64,8.88-9.51-3.87-9.47-8.88-9.47Z"></path><path class="h" d="M240.61,71.06h11.42v10.84c-.94,.9-4.42,4.5-11.66,4.5-7.67,0-14.01-4.85-14.01-13.93s6.34-13.93,13.93-13.93c6.96,0,10.09,3.72,11.03,4.7l-3.4,3.01c-1.37-1.57-3.68-3.4-7.63-3.4-4.93,0-8.69,3.52-8.69,9.59s3.87,9.59,8.88,9.59,6.61-2.03,6.61-2.03v-4.97h-6.49v-3.95Z"></path><path class="h" d="M289.24,78.07c0,5.01-3.68,8.33-9.39,8.33-4.62,0-7.79-2.15-9.55-4.19l2.43-3.68c2.11,2.31,4.66,3.56,7.2,3.56s4.23-1.21,4.23-3.56c0-2.11-1.41-2.82-3.72-3.76l-4.23-1.68c-2.93-1.17-4.89-3.25-4.89-6.53,0-4.7,3.68-7.94,9.35-7.94,3.83,0,6.61,1.6,8.22,3.25l-2.43,3.64c-1.72-1.56-3.79-2.7-6.1-2.7s-3.99,1.1-3.99,3.09,1.68,2.7,3.09,3.29l4.5,1.84c3.8,1.56,5.28,3.68,5.28,7.04Z"></path></g></g></g></svg>