<svg xmlns="http://www.w3.org/2000/svg" xmlns:xlink="http://www.w3.org/1999/xlink" viewBox="0 0 233.84 237.2"><defs><style>.cls-1{fill:#fff;}.cls-2{fill:#bf2028;}.cls-3{fill:#290f0f;}.cls-4{fill:url(#linear-gradient);mix-blend-mode:multiply;opacity:.72;}.cls-5{isolation:isolate;}</style><linearGradient id="linear-gradient" x1="-149.18" y1="282.1" x2="12.61" y2="120.32" gradientTransform="translate(72.64 -93.16) rotate(-173.06) scale(1 -1)" gradientUnits="userSpaceOnUse"><stop offset="0" stop-color="#000"></stop><stop offset="0" stop-color="#090909"></stop><stop offset=".02" stop-color="#373737"></stop><stop offset=".04" stop-color="#626262"></stop><stop offset=".07" stop-color="#878787"></stop><stop offset=".09" stop-color="#a8a8a8"></stop><stop offset=".12" stop-color="#c3c3c3"></stop><stop offset=".15" stop-color="#d9d9d9"></stop><stop offset=".19" stop-color="#eaeaea"></stop><stop offset=".24" stop-color="#f6f6f6"></stop><stop offset=".3" stop-color="#fdfdfd"></stop><stop offset=".48" stop-color="#fff"></stop></linearGradient></defs><g class="cls-5"><g id="Layer_2"><g id="Layer_1-2"><path class="cls-2" d="M43.31,25.86C93.35-14.55,166.68-6.74,207.09,43.3c18.92,23.43,27.26,51.97,25.66,79.83h0v.03c-.27,4.62-.84,9.23-1.66,13.78l-4.3,35.82-82.57,64.43-45.65-5.56,.09-.07c-27.65-4.28-53.85-18.46-72.8-41.93C-14.55,139.59-6.74,66.26,43.31,25.86Z"></path><path class="cls-4" d="M44.21,25.86C94.25-14.55,167.58-6.74,207.99,43.3c18.92,23.43,27.26,51.97,25.66,79.83h0v.03c-.27,4.62-.84,9.23-1.66,13.78l-4.3,35.82-82.57,64.43-45.65-5.56,.09-.07c-27.65-4.28-53.85-18.46-72.8-41.93C-13.65,139.59-5.84,66.26,44.21,25.86Z"></path><polygon class="cls-3" points="226.95 172.65 144.21 237.2 135.55 226.14 218.19 161.45 226.95 172.65"></polygon><polygon class="cls-2" points="218.19 161.45 209.36 235.12 135.55 226.14 218.19 161.45"></polygon><g><g><path class="cls-1" d="M47.49,126.12h-1.74v5.05h-5.31v-16.21h7.05c3.66,0,6.34,1.64,6.34,5.59s-2.7,5.57-6.34,5.57Zm-.89-7.17h-.87v3.17h.87c1.1,0,1.88-.33,1.88-1.57s-.8-1.6-1.88-1.6Z"></path><path class="cls-1" d="M68.34,131.17l-2.58-5.4h-.68v5.4h-5.31v-16.21h7.05c2,0,3.52,.35,4.7,1.17s2,2.23,2,3.99c0,3.29-2,4.46-2.7,4.89l3.64,6.15h-6.11Zm-.77-11.91c-.24-.19-.59-.31-1.17-.31h-1.34v2.82h1.34c.92,0,1.76-.35,1.76-1.41,0-.7-.35-.94-.59-1.1Z"></path><path class="cls-1" d="M87.96,131.45c-5.05,0-8.81-3.08-8.81-8.36s3.76-8.39,8.81-8.39,8.81,3.1,8.81,8.39-3.76,8.36-8.81,8.36Zm0-12.26c-2.11,0-3.48,1.55-3.48,3.78s1.36,3.78,3.48,3.78,3.45-1.55,3.45-3.78-1.34-3.78-3.45-3.78Z"></path><path class="cls-1" d="M109.34,131.17h-6.11v-16.21h6.11c5.38,0,9.16,2.28,9.16,8.1s-3.78,8.1-9.16,8.1Zm.4-11.86h-1.22v7.4h1.22c2.37,0,3.41-1.34,3.41-3.64s-.94-3.76-3.41-3.76Z"></path><path class="cls-1" d="M137.82,129.52c-1.18,1.17-3.05,1.9-5.64,1.9s-4.46-.73-5.64-1.9c-1.18-1.17-1.76-2.7-1.76-5.29v-9.28h5.33v9.51c0,1.39,.56,2.35,2.07,2.35s2.04-.96,2.04-2.35v-9.51h5.36v9.28c0,2.58-.59,4.11-1.76,5.29Z"></path><path class="cls-1" d="M154.56,131.45c-4.82,0-8.69-2.96-8.69-8.36s3.88-8.36,8.69-8.36c3.64,0,5.4,1.53,5.4,1.53l-1.41,4.46s-1.64-1.41-3.64-1.41-3.71,1.17-3.71,3.71,1.83,3.64,3.71,3.64,3.17-.78,3.88-1.48l1.53,4.23c-.59,.59-2.23,2.04-5.76,2.04Z"></path><path class="cls-1" d="M174.42,119.09v12.07h-5.31v-12.07h-3.81v-4.13h12.94v4.13h-3.83Z"></path><path class="cls-1" d="M194.11,130.06c-1.29,.99-2.91,1.39-4.79,1.39s-4.04-.52-6.25-2.16l2.35-3.99c1.5,1.27,3.62,1.76,4.32,1.76s1.2-.21,1.2-.68-.59-.66-1.17-.85c-.59-.16-1.88-.59-2.35-.75-2.26-.89-3.71-1.95-3.71-4.65,0-1.76,.92-3.12,1.88-3.92,.99-.82,2.61-1.41,4.77-1.41s4.37,.78,5.78,1.95l-2.02,3.76c-1.22-1.08-3.01-1.55-3.85-1.55s-1.31,.16-1.31,.66,.75,.63,1.13,.75,1.36,.4,1.93,.59c2.44,.82,4.23,2.04,4.23,4.89,0,1.69-.82,3.22-2.11,4.23Z"></path></g><g><g><path class="cls-1" d="M169.15,90.01c.65-1.93,1.37-4.65,3.46-5.66,1.89-.92,4.46-1.18,6.51-2.1-1.21-1.05-2.79-1.69-4.52-1.69-3.81,0-7.49,3.09-7.49,6.91,0,1.57,.53,3.03,1.42,4.19,.24-.54,.45-1.09,.63-1.64Z"></path><path class="cls-1" d="M180.44,83.79c.13-.24,.46-.92,.52-1.46-1.25,2.42-5.59,2.93-7.44,4.61-1.42,1.29-2.71,5.88-4.82,6.87,.82-.06,1.45-.3,1.73-.43,.64,.39,1.35,.68,2.11,.84l1.47,.16c3.81,0,6.91-3.09,6.91-6.91,0-1.35,.2-2.61-.47-3.67Zm-1.05,2.91c-.39,.77-1.43,1.04-2.19,1.38-.87,.39-1.77,.74-2.65,1.11-.46,.2-1.41,.45-1.69,.9,.02-.61,.13-1.25,.36-1.81,.33-.81,1.54-1.11,2.3-1.44,.89-.38,1.79-.74,2.66-1.15,.64-.3,1.57-.66,1.96-1.29-.16,.79-.4,1.58-.76,2.3Z"></path></g><g><path class="cls-1" d="M40.44,107.27v-1.06l1.17-.11,.33-.37v-8.05h-1.5v-.88l1.5-.69c0-1.13,.2-2.11,.59-2.95,.39-.84,.98-1.55,1.78-2.14,.42-.31,.88-.55,1.36-.72,.48-.17,.96-.25,1.46-.25,.66,0,1.2,.16,1.59,.46,.4,.31,.59,.72,.59,1.24,0,.32-.12,.6-.35,.84-.23,.25-.56,.44-1,.59l-2.25-1.99c-.3,.31-.53,.76-.68,1.35-.15,.59-.23,1.31-.23,2.18v1.57h3.16v1.39h-3.16v8.08l.37,.35,1.55,.11v1.06h-6.28Z"></path><path class="cls-1" d="M51.88,95.76h1.12v10.03l.34,.35,1.3,.09v1.04h-6.08v-1.04l1.26-.09,.33-.35v-8.01h-1.53v-.93l3.26-1.09Zm-.25-5.29c.51,0,.92,.16,1.25,.48,.32,.32,.49,.73,.49,1.22s-.16,.93-.48,1.26-.73,.49-1.23,.49-.89-.16-1.21-.49-.49-.73-.49-1.22,.16-.91,.48-1.25c.32-.33,.72-.5,1.2-.5Z"></path><path class="cls-1" d="M58.6,90.13h1.11v6.63c.63-.35,1.23-.62,1.78-.79,.55-.17,1.08-.25,1.59-.25,1.34,0,2.43,.49,3.29,1.47,.85,.98,1.28,2.25,1.28,3.79,0,1.34-.31,2.51-.93,3.48-.62,.98-1.53,1.74-2.72,2.27-.42,.18-.96,.32-1.6,.4-.65,.09-1.43,.13-2.34,.13h-.63l-2.57-.05v-15.1h-1.68v-.91l3.44-1.09Zm1.11,15.88c.08,0,.18,.01,.28,.02,.11,0,.26,0,.45,0,1.4,0,2.44-.36,3.1-1.08,.66-.72,.99-1.84,.99-3.37,0-1.31-.29-2.31-.87-3.01-.58-.7-1.41-1.05-2.49-1.05-.2,0-.41,.02-.65,.05s-.51,.08-.81,.14v8.3Z"></path><path class="cls-1" d="M79.77,104.39v1.72c-.79,.45-1.6,.79-2.4,1.02-.81,.23-1.62,.34-2.43,.34-1.73,0-3.12-.53-4.17-1.6s-1.57-2.47-1.57-4.23,.53-3.2,1.6-4.31c1.07-1.11,2.45-1.67,4.13-1.67,1.53,0,2.71,.46,3.56,1.38s1.27,2.21,1.27,3.87v.44h-7.6v.07c0,1.32,.33,2.36,1,3.12,.67,.76,1.58,1.13,2.75,1.13,.61,0,1.24-.11,1.87-.32,.64-.21,1.3-.53,1.99-.96Zm-3.06-4.27v-.25c0-.94-.17-1.67-.52-2.17-.35-.5-.85-.75-1.5-.75-.71,0-1.28,.28-1.71,.84-.43,.56-.66,1.34-.7,2.33h4.43Z"></path><path class="cls-1" d="M81.16,107.27v-1.04l1.23-.09,.33-.35v-8.01h-1.68v-.93l3.41-1.09h1.12l-.1,2.37c.4-.42,.83-.83,1.28-1.23,.45-.4,.93-.77,1.43-1.13,.13-.02,.23-.04,.31-.05s.15-.01,.21-.01c.25,0,.5,.03,.75,.1,.25,.06,.51,.16,.78,.3l-.29,3.21h-1.21c-.17-.29-.38-.5-.63-.63-.25-.14-.54-.2-.88-.2-.2,0-.43,.06-.71,.16-.28,.11-.59,.27-.93,.48v6.66l.34,.35,1.65,.09v1.04h-6.41Z"></path><path class="cls-1" d="M100.67,104.81v1.28c-.69,.45-1.4,.8-2.14,1.03s-1.49,.35-2.23,.35c-1.53,0-2.78-.53-3.74-1.58-.96-1.05-1.43-2.43-1.43-4.12s.5-3.15,1.5-4.25c1-1.1,2.29-1.65,3.86-1.65,1.29,0,2.3,.41,3.06,1.23,.75,.82,1.13,1.94,1.13,3.35,0,.19,0,.33,0,.43,0,.1-.01,.19-.03,.28h-7.52v.26c0,1.46,.35,2.61,1.05,3.46,.7,.85,1.65,1.27,2.85,1.27,.55,0,1.13-.11,1.72-.33,.59-.22,1.24-.56,1.93-1.02Zm-2.08-4.62v-.36c0-.93-.21-1.65-.62-2.14-.41-.5-1.01-.74-1.8-.74s-1.44,.31-2,.92c-.56,.61-.88,1.39-.95,2.33h5.36Z"></path><path class="cls-1" d="M101.72,107.27v-.84l1.37-.11,.4-.37v-14.19h-1.79v-.73l2.83-.83h.88v15.75l.42,.37,1.33,.11v.84h-5.44Z"></path><path class="cls-1" d="M117.44,104.81v1.28c-.69,.45-1.4,.8-2.14,1.03s-1.49,.35-2.23,.35c-1.53,0-2.78-.53-3.74-1.58-.96-1.05-1.43-2.43-1.43-4.12s.5-3.15,1.5-4.25c1-1.1,2.29-1.65,3.86-1.65,1.29,0,2.3,.41,3.06,1.23,.75,.82,1.13,1.94,1.13,3.35,0,.19,0,.33,0,.43,0,.1-.01,.19-.03,.28h-7.52v.26c0,1.46,.35,2.61,1.05,3.46,.7,.85,1.65,1.27,2.85,1.27,.55,0,1.13-.11,1.72-.33,.59-.22,1.24-.56,1.93-1.02Zm-2.08-4.62v-.36c0-.93-.21-1.65-.62-2.14-.41-.5-1.01-.74-1.8-.74s-1.44,.31-2,.92c-.56,.61-.88,1.39-.95,2.33h5.36Z"></path><path class="cls-1" d="M128.29,106.29c-.65,.38-1.29,.66-1.91,.85-.63,.19-1.25,.28-1.86,.28-1.57,0-2.83-.53-3.79-1.58-.96-1.05-1.43-2.45-1.43-4.17s.51-3.11,1.52-4.19,2.34-1.61,3.97-1.61c1.08,0,1.93,.21,2.55,.62s.93,.96,.93,1.66c0,.37-.12,.67-.35,.9-.23,.23-.55,.34-.94,.34-.17,0-.35-.03-.52-.09s-.35-.15-.52-.26v-1.9c-.18-.11-.37-.19-.56-.24s-.38-.08-.57-.08c-1.03,0-1.85,.43-2.48,1.29-.62,.86-.93,2-.93,3.43s.35,2.52,1.06,3.34c.71,.81,1.67,1.22,2.88,1.22,.51,0,1-.08,1.48-.24s.97-.41,1.46-.74v1.21Z"></path><path class="cls-1" d="M130.81,97.5h-1.46v-.73l1.53-.67,1-2.16h.86v2.47h3.53v1.09h-3.53v6.12c0,1,.14,1.68,.42,2.02,.28,.34,.78,.52,1.51,.52,.25,0,.51-.01,.78-.04s.55-.08,.83-.15v.86c-.53,.17-1.05,.29-1.56,.38-.51,.09-1.01,.13-1.48,.13-.89,0-1.52-.17-1.87-.5s-.54-.95-.54-1.84v-7.49Z"></path><path class="cls-1" d="M137.21,107.27v-.84l1.23-.11,.4-.37v-8.39h-1.63v-.73l2.7-.83h.88v2.18c.38-.39,.77-.76,1.18-1.14s.84-.74,1.3-1.1c.07-.02,.14-.04,.22-.05,.08,0,.2-.01,.36-.01,.23,0,.46,.02,.69,.07,.23,.05,.46,.13,.7,.23v1.99h-.74c-.15-.18-.33-.32-.53-.41s-.42-.14-.66-.14c-.37,0-.76,.14-1.17,.41-.41,.28-.86,.7-1.35,1.29v6.63l.4,.37,1.62,.11v.84h-5.6Z"></path><path class="cls-1" d="M151.62,95.87c1.58,0,2.87,.54,3.89,1.63,1.01,1.08,1.52,2.48,1.52,4.17s-.51,3.09-1.52,4.17c-1.02,1.08-2.31,1.63-3.88,1.63s-2.86-.54-3.87-1.62c-1.01-1.08-1.51-2.47-1.51-4.18s.5-3.1,1.5-4.18c1-1.08,2.29-1.62,3.88-1.62Zm0,1c-.97,0-1.74,.44-2.33,1.31-.59,.87-.88,2.04-.88,3.5s.29,2.62,.88,3.49,1.36,1.31,2.32,1.31,1.76-.43,2.34-1.3c.59-.87,.88-2.03,.88-3.5s-.3-2.61-.89-3.49c-.59-.88-1.37-1.31-2.34-1.31Z"></path><path class="cls-1" d="M158.58,107.27v-.84l1.26-.11,.4-.37v-8.39h-1.65v-.73l2.7-.83h.88v1.27c.93-.51,1.68-.87,2.24-1.08,.57-.21,1.06-.31,1.5-.31,1.01,0,1.79,.3,2.32,.91,.54,.6,.8,1.48,.8,2.63v6.54l.4,.37,1.25,.11v.84h-5.08v-.84l1.11-.11,.4-.37v-6.14c0-.87-.18-1.48-.54-1.85-.36-.36-.96-.54-1.81-.54-.37,0-.77,.06-1.2,.19-.43,.12-.89,.32-1.39,.57v7.77l.4,.37,1.11,.11v.84h-5.09Z"></path><path class="cls-1" d="M174.54,96h.91v9.95l.4,.37,1.25,.11v.84h-5.21v-.84l1.22-.11,.4-.37v-8.39h-1.62v-.73l2.66-.83Z"></path><path class="cls-1" d="M187.41,106.29c-.65,.38-1.29,.66-1.91,.85-.63,.19-1.25,.28-1.86,.28-1.57,0-2.83-.53-3.79-1.58-.96-1.05-1.43-2.45-1.43-4.17s.51-3.11,1.52-4.19,2.34-1.61,3.97-1.61c1.08,0,1.93,.21,2.55,.62s.93,.96,.93,1.66c0,.37-.12,.67-.35,.9-.23,.23-.55,.34-.94,.34-.17,0-.35-.03-.52-.09s-.35-.15-.52-.26v-1.9c-.18-.11-.37-.19-.56-.24s-.38-.08-.57-.08c-1.03,0-1.85,.43-2.48,1.29-.62,.86-.93,2-.93,3.43s.35,2.52,1.06,3.34c.71,.81,1.67,1.22,2.88,1.22,.51,0,1-.08,1.48-.24s.97-.41,1.46-.74v1.21Z"></path><path class="cls-1" d="M195.88,96.38v2.63h-1.14l-.18-1.64c-.31-.17-.6-.29-.88-.37-.28-.08-.56-.12-.84-.12-.6,0-1.08,.15-1.42,.44s-.51,.71-.51,1.23c0,.43,.14,.8,.41,1.1,.27,.3,.79,.64,1.56,1.01,.12,.06,.31,.15,.56,.26,.88,.4,1.51,.76,1.9,1.09,.29,.23,.51,.51,.66,.86,.15,.34,.23,.72,.23,1.14,0,1.09-.38,1.94-1.15,2.55-.77,.62-1.83,.92-3.19,.92-.56,0-1.09-.04-1.6-.12-.51-.08-.98-.2-1.41-.37v-3.01h1.11l.28,1.97c.32,.19,.65,.33,.98,.42s.66,.14,.99,.14c.66,0,1.18-.17,1.58-.52,.4-.34,.59-.79,.59-1.35,0-.47-.14-.86-.41-1.16-.27-.31-.92-.69-1.95-1.16-1.16-.52-1.95-1.01-2.37-1.47-.42-.46-.63-1.03-.63-1.71,0-1.03,.36-1.83,1.08-2.4,.72-.57,1.73-.85,3.04-.85,.52,0,1.01,.04,1.46,.13,.45,.09,.87,.21,1.26,.38Z"></path></g></g></g></g></g></g></svg>