<svg xmlns="http://www.w3.org/2000/svg" viewBox="0 0 400 503.4"><defs><style>.cls-1{fill:#fff;}.cls-2{fill:#22ba02;}.cls-3{fill:#65a0ef;}</style></defs><g id="Layer_2" data-name="Layer 2"><g id="Layer_42" data-name="Layer 42"><path class="cls-1" d="M16.67,58.93v4.22H5.09v6.69H16V74H5.09V81.7H17v4.23H0v-27Z"></path><path class="cls-1" d="M35.89,72.66V85.93h-5v-27h5.4L49.74,78.61s-.07-3.17-.07-6.38V58.93h5v27H49.51L35.81,66S35.89,69.45,35.89,72.66Z"></path><path class="cls-1" d="M78.26,58.93c4.7,0,8.18,1.52,10.26,3.4a12.69,12.69,0,0,1,4.3,10.06,12.9,12.9,0,0,1-4.3,10.17C86.44,84.4,83,85.93,78.26,85.93H69.62v-27Zm6.62,20.46a9.12,9.12,0,0,0,2.7-7,8.45,8.45,0,0,0-9.12-9.24H74.7V81.62h3.76A9.22,9.22,0,0,0,84.88,79.39Z"></path><path class="cls-1" d="M104.79,72.47c0-8.69,6.34-13.93,14.13-13.93s14.13,5.24,14.13,13.93-6.3,13.93-14.13,13.93S104.79,81.15,104.79,72.47ZM118.92,63c-5,0-8.88,3.6-8.88,9.47s3.91,9.51,8.88,9.51,8.88-3.64,8.88-9.51S123.93,63,118.92,63Z"></path><path class="cls-1" d="M151.62,75v11h-5.08v-27h8.68A10.91,10.91,0,0,1,162,60.84a7.43,7.43,0,0,1,2.9,6c0,4.66-2.55,6.54-5.83,7.55l7.27,11.59h-5.94l-6.38-11Zm6.5-4.85a4,4,0,0,0,0-6.34,6.18,6.18,0,0,0-3.88-.86h-2.66V71h2.66A6.18,6.18,0,0,0,158.12,70.12Z"></path><path class="cls-1" d="M195.52,78.06c0,5-3.68,8.34-9.39,8.34a12.43,12.43,0,0,1-9.55-4.19L179,78.53a9.92,9.92,0,0,0,7.2,3.56c2.51,0,4.23-1.21,4.23-3.56,0-2.11-1.41-2.82-3.72-3.75l-4.22-1.69c-2.94-1.17-4.9-3.25-4.9-6.53,0-4.7,3.68-8,9.36-8a11.36,11.36,0,0,1,8.21,3.25l-2.42,3.64a9.24,9.24,0,0,0-6.11-2.7c-2.23,0-4,1.1-4,3.09s1.69,2.7,3.09,3.29l4.5,1.84C194,72.58,195.52,74.7,195.52,78.06Z"></path><path class="cls-1" d="M225.66,58.93v4.22H214.08v6.69H225V74H214.08V81.7H226v4.23H209v-27Z"></path><path class="cls-1" d="M263.07,65.54,255.87,86h-3.56l-7.05-20.5h-.12L243.7,85.93h-4.89l2.23-27h6.69l6.53,19.37h.08L261,58.93h6.46l2.31,27h-5l-1.57-20.39Z"></path><path class="cls-1" d="M300.39,58.93v4.22H288.8v6.69h10.92V74H288.8V81.7h11.9v4.23h-17v-27Z"></path><path class="cls-1" d="M319.61,72.66V85.93h-5v-27H320l13.42,19.68s-.08-3.17-.08-6.38V58.93h5v27h-5.12L319.53,66S319.61,69.45,319.61,72.66Z"></path><path class="cls-1" d="M350.55,63V58.93h19.88V63H363V85.93h-5V63Z"></path><path class="cls-1" d="M400,78.06c0,5-3.68,8.34-9.39,8.34a12.43,12.43,0,0,1-9.55-4.19l2.43-3.68a9.89,9.89,0,0,0,7.2,3.56c2.5,0,4.22-1.21,4.22-3.56,0-2.11-1.41-2.82-3.71-3.75L387,73.09c-2.94-1.17-4.89-3.25-4.89-6.53,0-4.7,3.68-8,9.35-8a11.39,11.39,0,0,1,8.22,3.25l-2.43,3.64a9.22,9.22,0,0,0-6.1-2.7c-2.23,0-4,1.1-4,3.09s1.68,2.7,3.09,3.29l4.5,1.84C398.51,72.58,400,74.7,400,78.06Z"></path><path class="cls-2" d="M0,44V41.24L3,41,3.81,40V19.47H0V17.22l3.81-1.76A17.6,17.6,0,0,1,5.3,8,14.16,14.16,0,0,1,9.84,2.49,13.05,13.05,0,0,1,13.3.66,10.88,10.88,0,0,1,17,0a6.43,6.43,0,0,1,4,1.18,3.78,3.78,0,0,1,1.52,3.15,3.1,3.1,0,0,1-.88,2.15A6.43,6.43,0,0,1,19.14,8L13.4,2.93a7.43,7.43,0,0,0-1.74,3.43,23,23,0,0,0-.57,5.55v4h8.05v3.55h-8V40l.95.9,4,.29v2.71Z"></path><path class="cls-2" d="M29.14,14.62H32V40.17l.87.9,3.32.23V44H20.69V41.3l3.2-.23.84-.9V19.76h-3.9V17.39ZM28.51,1.14a4.29,4.29,0,0,1,3.18,1.22,4.24,4.24,0,0,1,1.24,3.11A4.45,4.45,0,0,1,31.7,8.69a4.35,4.35,0,0,1-7.46-3.11,4.43,4.43,0,0,1,1.22-3.17A4,4,0,0,1,28.51,1.14Z"></path><path class="cls-2" d="M46.27.27H49.1V17.16a24.38,24.38,0,0,1,4.53-2,13.29,13.29,0,0,1,4-.65A10.55,10.55,0,0,1,66,18.26a14.12,14.12,0,0,1,3.27,9.67,16.17,16.17,0,0,1-2.39,8.88A15.53,15.53,0,0,1,60,42.6a16,16,0,0,1-4.09,1,46.22,46.22,0,0,1-6,.33H48.32l-6.56-.11V5.35H37.49V3ZM49.1,40.75H51q5.37,0,7.9-2.76c1.68-1.84,2.53-4.7,2.53-8.59,0-3.33-.75-5.89-2.23-7.67a7.77,7.77,0,0,0-6.35-2.67,11.59,11.59,0,0,0-1.66.12c-.61.08-1.29.19-2.06.34Z"></path><path class="cls-2" d="M100.23,36.62V41a27.82,27.82,0,0,1-6.13,2.6,23.47,23.47,0,0,1-6.19.86A14.27,14.27,0,0,1,77.29,40.4q-4-4.08-4-10.77a15.21,15.21,0,0,1,4.09-11,14,14,0,0,1,10.53-4.26q5.85,0,9.08,3.51t3.24,9.86v1.12H80.85V29q0,5.06,2.55,7.94a8.84,8.84,0,0,0,7,2.89A15.12,15.12,0,0,0,95.17,39,23.5,23.5,0,0,0,100.23,36.62Zm-7.8-10.89V25.1a9.56,9.56,0,0,0-1.33-5.53,4.3,4.3,0,0,0-3.81-1.92,5.21,5.21,0,0,0-4.36,2.15,10.32,10.32,0,0,0-1.79,5.93Z"></path><path class="cls-2" d="M103.78,44V41.3l3.15-.23.83-.9V19.76h-4.27V17.39l8.69-2.77H115l-.26,6c1-1.07,2.11-2.12,3.26-3.13a38.91,38.91,0,0,1,3.64-2.87c.33-.06.59-.1.79-.12H123a7.72,7.72,0,0,1,1.92.25,8.78,8.78,0,0,1,2,.76l-.75,8.17h-3.09a4.13,4.13,0,0,0-1.6-1.61,4.38,4.38,0,0,0-2.24-.52,4.88,4.88,0,0,0-1.8.42A17,17,0,0,0,115,23.19v17l.86.9,4.22.23V44Z"></path><path class="cls-3" d="M153.49,37.69V41A22.2,22.2,0,0,1,148,43.58a19.22,19.22,0,0,1-5.69.89,12.3,12.3,0,0,1-9.53-4A15,15,0,0,1,129.13,30,15.47,15.47,0,0,1,133,19.11a12.72,12.72,0,0,1,9.84-4.2,10,10,0,0,1,7.78,3.1c1.92,2.09,2.87,4.93,2.87,8.53v1.1a4.39,4.39,0,0,1-.07.72H134.24V29c0,3.72.89,6.66,2.69,8.82a8.93,8.93,0,0,0,7.25,3.25,12.84,12.84,0,0,0,4.38-.83A25.06,25.06,0,0,0,153.49,37.69Zm-5.31-11.78V25a8.3,8.3,0,0,0-1.57-5.47,5.62,5.62,0,0,0-4.58-1.9A6.64,6.64,0,0,0,136.94,20,9.48,9.48,0,0,0,134.53,26Z"></path><path class="cls-3" d="M157.65,44V41.82l3.49-.29,1-1V4.4h-4.57V2.55L164.81.44h2.25V40.57l1.07,1,3.38.29V44Z"></path><path class="cls-3" d="M199.24,37.69V41a22.79,22.79,0,0,1-5.47,2.63,19.27,19.27,0,0,1-5.69.89,12.25,12.25,0,0,1-9.52-4A15,15,0,0,1,174.9,30a15.39,15.39,0,0,1,3.83-10.84,12.69,12.69,0,0,1,9.84-4.2A10,10,0,0,1,196.36,18c1.92,2.08,2.88,4.93,2.88,8.53v1.1c0,.24,0,.48-.07.72H180V29c0,3.72.89,6.66,2.69,8.82A8.93,8.93,0,0,0,190,41.08a12.89,12.89,0,0,0,4.38-.83A25.39,25.39,0,0,0,199.24,37.69Zm-5.31-11.78V25a8.4,8.4,0,0,0-1.58-5.47,5.61,5.61,0,0,0-4.57-1.9,6.63,6.63,0,0,0-5.1,2.35,9.48,9.48,0,0,0-2.41,5.94Z"></path><path class="cls-3" d="M226.87,41.47A24.29,24.29,0,0,1,222,43.64a16.61,16.61,0,0,1-4.74.72,12.4,12.4,0,0,1-9.65-4q-3.66-4-3.66-10.64A14.86,14.86,0,0,1,207.83,19,13.24,13.24,0,0,1,218,14.9a11.55,11.55,0,0,1,6.49,1.57,4.84,4.84,0,0,1,2.37,4.23,3,3,0,0,1-.9,2.28,3.3,3.3,0,0,1-2.39.87,4.22,4.22,0,0,1-1.33-.23,6.38,6.38,0,0,1-1.33-.67V18.11a6.79,6.79,0,0,0-1.41-.62,5.09,5.09,0,0,0-1.45-.21,7.44,7.44,0,0,0-6.31,3.27,14.52,14.52,0,0,0-2.38,8.74q0,5.4,2.7,8.5a9.24,9.24,0,0,0,7.35,3.1,11.88,11.88,0,0,0,3.78-.62,15.4,15.4,0,0,0,3.73-1.89Z"></path><path class="cls-3" d="M233.31,19.06h-3.73V17.22l3.9-1.71L236,10h2.19V16.3h9v2.77h-9v15.6c0,2.56.36,4.27,1.07,5.15s2,1.31,3.84,1.31c.67,0,1.33,0,2-.11a19.22,19.22,0,0,0,2.12-.38v2.2a30.78,30.78,0,0,1-4,1,22.92,22.92,0,0,1-3.79.34q-3.42,0-4.77-1.29c-.92-.86-1.37-2.42-1.37-4.69Z"></path><path class="cls-3" d="M249.62,44V41.82l3.14-.29,1-1V19.18H249.6V17.33l6.87-2.11h2.25v5.55c1-1,2-2,3-2.9S263.91,16,265.06,15a2.13,2.13,0,0,1,.57-.11h.91a7.47,7.47,0,0,1,1.76.19,8.94,8.94,0,0,1,1.79.59v5.08h-1.88a3.94,3.94,0,0,0-1.34-1.06,3.81,3.81,0,0,0-1.69-.36,5.33,5.33,0,0,0-3,1.06,16.72,16.72,0,0,0-3.45,3.27v16.9l1,1,4.13.29V44Z"></path><path class="cls-3" d="M286.34,14.91a13,13,0,0,1,9.91,4.1,15,15,0,0,1,3.86,10.64,15,15,0,0,1-3.88,10.64,13.86,13.86,0,0,1-19.6.15l-.15-.15a15,15,0,0,1-3.85-10.65A15,15,0,0,1,276.45,19,12.83,12.83,0,0,1,286.34,14.91Zm0,2.54a6.82,6.82,0,0,0-5.93,3.33,15.83,15.83,0,0,0-2.24,8.91,15.7,15.7,0,0,0,2.25,8.91,7,7,0,0,0,11.9,0c1.5-2.21,2.25-5.19,2.25-8.92a15.61,15.61,0,0,0-2.27-8.89A6.89,6.89,0,0,0,286.34,17.45Z"></path><path class="cls-3" d="M304.07,44V41.82l3.2-.29,1-1V19.18h-4.21V17.33l6.87-2.11h2.25v3.24a43.62,43.62,0,0,1,5.72-2.76,11,11,0,0,1,3.81-.79,7.48,7.48,0,0,1,5.92,2.31c1.37,1.54,2.06,3.77,2.05,6.7V40.57l1,1,3.18.29V44H321.94V41.82l2.83-.29,1-1V24.93q0-3.33-1.37-4.71c-.92-.92-2.45-1.39-4.61-1.39a10.57,10.57,0,0,0-3.06.48,19.63,19.63,0,0,0-3.55,1.46v19.8l1,1,2.83.29V44Z"></path><path class="cls-3" d="M344.75,15.22h2.31V40.57l1,1,3.18.29V44H338V41.82l3.11-.29,1-1V19.18H338V17.33Z"></path><path class="cls-3" d="M377.55,41.47a24.21,24.21,0,0,1-4.88,2.17,16.55,16.55,0,0,1-4.74.72,12.4,12.4,0,0,1-9.65-4q-3.66-4-3.66-10.64A14.92,14.92,0,0,1,358.51,19a13.25,13.25,0,0,1,10.12-4.11,11.53,11.53,0,0,1,6.49,1.57,4.84,4.84,0,0,1,2.37,4.23,3,3,0,0,1-.9,2.28,3.3,3.3,0,0,1-2.39.87,4.32,4.32,0,0,1-1.33-.23,7.21,7.21,0,0,1-1.33-.67V18.11a6.57,6.57,0,0,0-1.41-.62,5.09,5.09,0,0,0-1.45-.21,7.42,7.42,0,0,0-6.3,3.27A14.53,14.53,0,0,0,360,29.29q0,5.4,2.7,8.5a9.25,9.25,0,0,0,7.35,3.1,11.84,11.84,0,0,0,3.78-.62,15.22,15.22,0,0,0,3.73-1.89Z"></path><path class="cls-3" d="M399.14,16.21V22.9h-2.91l-.46-4.18a10.93,10.93,0,0,0-2.26-.95,6.71,6.71,0,0,0-2.13-.32,5.29,5.29,0,0,0-3.61,1.12,3.9,3.9,0,0,0-1.3,3.15,4,4,0,0,0,1,2.8,13.29,13.29,0,0,0,4,2.57c.31.16.78.38,1.42.67a22.62,22.62,0,0,1,4.85,2.77,5.44,5.44,0,0,1,1.67,2.18,6.87,6.87,0,0,1,.58,2.9,7.88,7.88,0,0,1-2.93,6.51q-2.93,2.35-8.13,2.35a27.9,27.9,0,0,1-4.08-.3,17.83,17.83,0,0,1-3.6-.94V35.55h2.83l.72,5a10.65,10.65,0,0,0,2.5,1.07,9.9,9.9,0,0,0,2.53.35,6,6,0,0,0,4-1.32,4.7,4.7,0,0,0,.48-6.4c-.67-.78-2.33-1.78-5-3q-4.5-2-6-3.76a6.22,6.22,0,0,1-1.61-4.36A7.37,7.37,0,0,1,384.45,17c1.83-1.44,4.4-2.16,7.73-2.16a19.18,19.18,0,0,1,3.71.33A14.81,14.81,0,0,1,399.14,16.21Z"></path><circle class="cls-3" cx="342.61" cy="5.54" r="3.65"></circle><g id="Layer_2-2" data-name="Layer 2"><g id="_&#xCE;&#xD3;&#xC8;_1" data-name=" &#xCE;&#xD3;&#xC8; 1"><path class="cls-2" d="M271.44,274.88c-1.9-5.91-5.7-22.28-.95-47.13,1.9-9.78,3.19-19.77,2.58-29.75-.74-11.27-2.92-20.51-6.52-27.3-5.23-9.91-13.44-14.87-23.77-14.33A22.92,22.92,0,0,0,225,165.54c-6,7.81-9.17,20.37-8.28,37.35a146.93,146.93,0,0,0,3,22.48,64,64,0,0,1,1,15.69c-.68,8.89-3.6,14.26-8.77,15.82a169.51,169.51,0,0,0-31,2c-9.71,1.56-17.93,4-24.31,7.34-8.56,4.34-14.13,10.18-16.44,17.38-.61,1.63-3.94,10.8-.68,19.63-2.37,1.69-3.87,3.6-5.91,5.63-6.92,7.2-10,15.49-9,23.84a31.32,31.32,0,0,0,3.74,11.55,139.12,139.12,0,0,0,.61,21.32c1.08,8.76,3.12,15.08,6.38,19.29a90.82,90.82,0,0,0,.54,16.64,48.9,48.9,0,0,0,4.42,15.41,26.27,26.27,0,0,0,11.68,12.5c7.88,4.07,22.55,11.68,38.1,15.68a74.87,74.87,0,0,0,22.41,2.65c8.89-.47,16.64-3,23.09-7.67,10.86-7.88,16.77-16.3,17.72-25a19.62,19.62,0,0,0-1-8.63,44.4,44.4,0,0,0,6.25-11.07c3.67-9.57,2.78-18.88-2.38-27.09a68.65,68.65,0,0,0,12.3-17.39,86.38,86.38,0,0,0,7.94-26.55c1.63-11.89.41-24.79-2.17-38.44A89.06,89.06,0,0,0,271.44,274.88Zm-9,2.85a84.25,84.25,0,0,1,2.51,9.92c4.08,21.25,3.19,40.61-3.73,56.23-.34-8.15-4.21-12.84-7.95-15.42a13.67,13.67,0,0,0-2.17-1.22,22.37,22.37,0,0,0,5.63-13.72c.68-3.8-.2-7.67-1.22-11.34-1.63-5.77-6.11-13.86-18.4-19.22a4.71,4.71,0,0,0-3.94,8.56c.07,0,.13.06.2.06,6.93,3.06,11.28,7.34,13,12.77.75,2.45,1.63,5,1.16,7.47a4.45,4.45,0,0,0-.14.95c-.41,9.17-9,12.57-10.46,13.11a35,35,0,0,0-5.23,1.29c-1.35.41-7.67,1.36-30.69-5.3-12.84-3.66-24.38-7.87-24.52-7.94a4.71,4.71,0,1,0-3.66,8.69c.13.07.33.14.47.2.48.21,11.95,4.35,25.06,8.15,24.72,7.13,32.53,6.39,36.2,5.23,8.42-2.65,12.7-.34,13.24,0l.07.07c3.94,2.72,5,8.08,3,16A61.6,61.6,0,0,1,246,364.73c-1.29,1.15-6.18,4.88-16,6.31-10.94,1.56-30.09.27-59.29-14.46a4.7,4.7,0,0,0-6.25,2.3,4.75,4.75,0,0,0,2,6.12c26.28,13.24,45.64,16.57,59.35,15.89,11.28-.55,18.68-3.8,23-6.52,3,5.36,3.33,11.2,1,17.45a34.34,34.34,0,0,1-6.45,10.66h0c-.14.14-16.1,14.81-67.31-5.29a4.71,4.71,0,0,0-3.46,8.76h0a169.38,169.38,0,0,0,35.79,10.12,84.24,84.24,0,0,0,17.52,1c2.11-.14,4.21-.34,6.18-.62a41.92,41.92,0,0,0,11.82-3.39c-.07,4.28-2.58,11.14-13.92,19.42-8.9,6.45-21.53,7.68-37.56,3.53-14.53-3.73-28.59-11-36.13-14.94-7.26-3.73-10-13.31-11-20.64a75.32,75.32,0,0,1-.41-16.57,4.8,4.8,0,0,0-1.35-3.87c-1.43-1.36-3.94-5.23-5.17-15.42-.4-3.46-.61-6.93-.68-10.39a23.26,23.26,0,0,0,2.25,1.36,4.74,4.74,0,0,0,4.61-8.29,21,21,0,0,1-7.26-6.59c-.07-.13-.21-.27-.27-.4a20.8,20.8,0,0,1-3-8.63c-1.7-13.58,14.39-22.48,14.53-22.54,2.31-1.23,2.45-4.08,1.22-6.39a1.31,1.31,0,0,0-.27-.41c-4.14-6.11-.68-14.87-.54-15.21a.9.9,0,0,0,.13-.41c3.6-11.27,20-16.23,33.21-18.4a158.68,158.68,0,0,1,30-1.83,4.5,4.5,0,0,0,1.36-.14,19.77,19.77,0,0,0,12.77-10.12,36.94,36.94,0,0,0,3.73-14.53,74.42,74.42,0,0,0-1.22-18.2v-.07a145.71,145.71,0,0,1-2.79-20.92c-.74-14.46,1.91-25.19,6.39-31.1A13.4,13.4,0,0,1,243.33,166c6.72-.34,11.47,2.65,15,9.3,2.92,5.57,4.82,13.72,5.43,23.57.54,9.16-.68,18.33-2.45,27.37C256.1,253,260.37,271.14,262.48,277.73Z"></path><path class="cls-3" d="M342.07,162c-78.1-78.1-204.75-78.1-282.85,0C21.73,199.5,0,250.36,0,303.4v.41H11.88v-.41c0-103.77,85.1-188.11,188.8-188.11S388.12,199.7,388.12,303.4,304.38,491.52,200.68,491.52h-.41V503.4h.41C311.1,503.4,400,413.89,400,303.4,400,250.36,379.63,199.5,342.07,162Z"></path><path class="cls-2" d="M200.68,463.47c-88.29,0-160.75-71.85-160.75-160.07s72.46-160.07,160.75-160.07V131.45c-94.94,0-172.63,77-172.63,172C28.05,349,46.86,392.7,79.12,425a171.93,171.93,0,0,0,243.19,0C354.57,392.7,372,349,372,303.4H360.07C360.07,391.69,289,463.47,200.68,463.47Z"></path></g></g></g></g></svg>