<svg xmlns="http://www.w3.org/2000/svg" id="Layer_2" viewBox="0 0 537.31 92.15"><defs><style>.cls-1{fill:#65a0ef;}.cls-2{fill:#22ba02;}</style></defs><g id="Layer_1-2"><g><path class="cls-1" d="M444.63,32.36c2.24-6.59,2.7-15.91,9.83-19.38,6.47-3.15,15.25-4.03,22.28-7.19-4.15-3.6-9.56-5.78-15.49-5.78-13.06,0-23.64,10.58-23.64,23.64,0,5.39,1.81,10.36,4.84,14.34,.81-1.85,1.53-3.73,2.17-5.62Z"></path><path class="cls-2" d="M481.29,11.08c.44-.83,1.58-3.15,1.78-5.01-4.28,8.29-19.15,10.02-25.47,15.77-4.85,4.41-7.28,20.14-14.5,23.5,2.82-.21,4.95-1.03,5.91-1.47,2.2,1.33,4.63,2.31,7.21,2.87l5.03,.54c13.06,0,23.64-10.58,23.64-23.64,0-4.62-1.32-8.92-3.61-12.56Zm-3.58,9.96c-1.33,2.65-2.88,3.56-5.48,4.72-2.99,1.33-6.05,2.52-9.06,3.81-1.56,.67-4.81,1.53-5.77,3.1,.06-2.1,.43-4.27,1.23-6.21,1.15-2.77,3.28-3.81,5.88-4.94,3.03-1.32,6.12-2.52,9.11-3.92,2.18-1.02,5.39-2.25,6.71-4.43-.56,2.69-1.38,5.4-2.61,7.86Z"></path></g><g><path class="cls-2" d="M0,91.45v-3.65l3.99-.39,1.13-1.28v-27.57H0v-3.02l5.12-2.37c0-3.85,.67-7.21,2-10.08,1.34-2.87,3.37-5.31,6.09-7.33,1.45-1.06,3-1.88,4.64-2.46,1.64-.58,3.3-.87,4.98-.87,2.27,0,4.09,.53,5.45,1.59,1.36,1.06,2.04,2.47,2.04,4.23,0,1.09-.39,2.05-1.18,2.89-.79,.84-1.93,1.52-3.43,2.04l-7.72-6.83c-1.03,1.06-1.81,2.6-2.33,4.62-.52,2.02-.78,4.5-.78,7.45v5.39h10.82v4.77H14.89v27.65l1.28,1.2,5.31,.39v3.65H0Z"></path><path class="cls-2" d="M39.15,52.05h3.84v34.32l1.16,1.2,4.46,.31v3.57H27.79v-3.57l4.31-.31,1.12-1.2v-27.42h-5.24v-3.18l11.17-3.72Zm-.85-18.11c1.73,0,3.15,.55,4.27,1.65,1.11,1.1,1.67,2.49,1.67,4.17s-.55,3.2-1.65,4.32-2.5,1.69-4.21,1.69-3.04-.56-4.15-1.67-1.67-2.51-1.67-4.19,.55-3.13,1.65-4.27c1.1-1.14,2.46-1.71,4.09-1.71Z"></path><path class="cls-2" d="M62.15,32.78h3.8v22.69c2.17-1.22,4.2-2.11,6.09-2.7,1.89-.58,3.7-.87,5.43-.87,4.58,0,8.33,1.68,11.25,5.04,2.92,3.36,4.38,7.69,4.38,12.99,0,4.6-1.07,8.58-3.2,11.93-2.13,3.35-5.24,5.94-9.33,7.78-1.45,.62-3.28,1.08-5.49,1.38-2.21,.3-4.88,.45-8.01,.45h-2.17l-8.8-.16V39.6h-5.74v-3.1l11.79-3.72Zm3.8,54.37c.28,.03,.61,.05,.97,.06,.36,.01,.88,.02,1.55,.02,4.81,0,8.34-1.23,10.61-3.7,2.26-2.47,3.39-6.32,3.39-11.54,0-4.47-1-7.91-2.99-10.3-1.99-2.39-4.84-3.59-8.53-3.59-.67,0-1.42,.05-2.23,.16s-1.74,.26-2.77,.46v28.43Z"></path><path class="cls-2" d="M134.63,81.6v5.9c-2.72,1.55-5.46,2.71-8.23,3.49-2.77,.78-5.54,1.16-8.31,1.16-5.93,0-10.68-1.82-14.27-5.47s-5.38-8.47-5.38-14.47,1.83-10.94,5.49-14.76c3.66-3.81,8.38-5.72,14.15-5.72,5.23,0,9.29,1.57,12.19,4.71s4.35,7.56,4.35,13.24v1.51h-26.02v.23c0,4.53,1.14,8.08,3.42,10.67,2.28,2.59,5.41,3.88,9.4,3.88,2.1,0,4.23-.36,6.41-1.09,2.17-.72,4.44-1.82,6.8-3.3Zm-10.47-14.62v-.85c0-3.23-.6-5.71-1.78-7.43-1.19-1.72-2.9-2.58-5.12-2.58-2.43,0-4.38,.96-5.86,2.89-1.47,1.93-2.28,4.58-2.4,7.97h15.16Z"></path><path class="cls-2" d="M139.4,91.45v-3.57l4.23-.31,1.12-1.2v-27.42h-5.74v-3.18l11.67-3.72h3.84l-.35,8.11c1.37-1.45,2.83-2.85,4.38-4.21,1.55-1.36,3.18-2.64,4.89-3.86,.44-.08,.8-.13,1.07-.16s.51-.04,.72-.04c.85,0,1.71,.11,2.58,.33,.87,.22,1.75,.56,2.66,1.03l-1.01,10.97h-4.15c-.6-.98-1.31-1.71-2.15-2.17-.84-.47-1.84-.7-3.01-.7-.67,0-1.48,.19-2.42,.56-.94,.38-2.01,.92-3.2,1.65v22.8l1.16,1.2,5.66,.31v3.57h-21.95Z"></path><path class="cls-1" d="M206.18,83.04v4.38c-2.36,1.55-4.8,2.73-7.34,3.53s-5.09,1.2-7.65,1.2c-5.25,0-9.52-1.8-12.79-5.41-3.28-3.61-4.91-8.31-4.91-14.1s1.71-10.8,5.14-14.56c3.43-3.76,7.84-5.64,13.22-5.64,4.4,0,7.89,1.4,10.46,4.21,2.58,2.81,3.86,6.63,3.86,11.46,0,.65,0,1.14-.02,1.47-.01,.34-.05,.66-.1,.97h-25.75v.89c0,4.99,1.2,8.94,3.61,11.85,2.41,2.91,5.66,4.36,9.75,4.36,1.89,0,3.85-.37,5.88-1.12,2.03-.75,4.24-1.91,6.62-3.49Zm-7.13-15.82v-1.24c0-3.19-.71-5.64-2.11-7.34-1.41-1.7-3.46-2.55-6.15-2.55s-4.92,1.05-6.84,3.15c-1.93,2.1-3.01,4.76-3.24,7.98h18.34Z"></path><path class="cls-1" d="M211.77,91.45v-2.87l4.69-.39,1.36-1.28V38.32h-6.13v-2.48l9.7-2.83h3.02v53.91l1.44,1.28,4.54,.39v2.87h-18.62Z"></path><path class="cls-1" d="M267.62,83.04v4.38c-2.36,1.55-4.8,2.73-7.34,3.53s-5.09,1.2-7.65,1.2c-5.25,0-9.52-1.8-12.79-5.41-3.28-3.61-4.91-8.31-4.91-14.1s1.71-10.8,5.14-14.56c3.43-3.76,7.84-5.64,13.22-5.64,4.4,0,7.89,1.4,10.46,4.21,2.58,2.81,3.86,6.63,3.86,11.46,0,.65,0,1.14-.02,1.47-.01,.34-.05,.66-.1,.97h-25.75v.89c0,4.99,1.2,8.94,3.61,11.85,2.41,2.91,5.66,4.36,9.75,4.36,1.89,0,3.85-.37,5.88-1.12,2.03-.75,4.24-1.91,6.62-3.49Zm-7.13-15.82v-1.24c0-3.19-.71-5.64-2.11-7.34-1.41-1.7-3.46-2.55-6.15-2.55s-4.92,1.05-6.84,3.15c-1.93,2.1-3.01,4.76-3.24,7.98h18.34Z"></path><path class="cls-1" d="M304.73,88.12c-2.22,1.29-4.41,2.26-6.55,2.91-2.15,.65-4.27,.97-6.36,.97-5.38,0-9.7-1.8-12.97-5.41-3.27-3.61-4.91-8.37-4.91-14.29s1.74-10.65,5.22-14.33,8.01-5.53,13.59-5.53c3.7,0,6.61,.7,8.73,2.11s3.18,3.3,3.18,5.68c0,1.27-.4,2.29-1.2,3.06-.8,.77-1.87,1.16-3.22,1.16-.59,0-1.19-.1-1.78-.31s-1.19-.5-1.78-.89v-6.52c-.62-.36-1.26-.64-1.9-.83s-1.29-.29-1.94-.29c-3.52,0-6.34,1.47-8.47,4.4-2.13,2.93-3.2,6.84-3.2,11.73s1.21,8.64,3.63,11.42c2.42,2.78,5.71,4.17,9.87,4.17,1.73,0,3.43-.28,5.08-.83s3.32-1.4,5-2.54v4.15Z"></path><path class="cls-1" d="M313.38,58.02h-5v-2.48l5.24-2.29,3.41-7.41h2.95v8.46h12.1v3.72h-12.1v20.94c0,3.44,.48,5.75,1.44,6.92,.96,1.18,2.68,1.76,5.16,1.76,.85,0,1.74-.05,2.66-.15s1.87-.27,2.85-.5v2.95c-1.81,.57-3.59,1-5.35,1.3-1.76,.3-3.45,.45-5.08,.45-3.05,0-5.19-.58-6.42-1.73s-1.84-3.25-1.84-6.3v-25.64Z"></path><path class="cls-1" d="M335.29,91.45v-2.87l4.23-.39,1.36-1.28v-28.74h-5.59v-2.48l9.23-2.83h3.03v7.45c1.29-1.32,2.64-2.62,4.05-3.9s2.89-2.54,4.44-3.78c.23-.08,.49-.13,.76-.16,.27-.03,.68-.04,1.22-.04,.8,0,1.59,.08,2.37,.25,.78,.17,1.58,.43,2.41,.79v6.83h-2.52c-.52-.62-1.12-1.09-1.8-1.42s-1.44-.49-2.27-.49c-1.27,0-2.6,.47-4.01,1.42-1.41,.94-2.95,2.41-4.63,4.4v22.69l1.36,1.28,5.55,.39v2.87h-19.16Z"></path><path class="cls-1" d="M384.62,52.44c5.4,0,9.84,1.85,13.3,5.57,3.46,3.71,5.2,8.47,5.2,14.29s-1.74,10.58-5.22,14.29c-3.48,3.71-7.91,5.56-13.28,5.56s-9.79-1.85-13.24-5.55c-3.45-3.7-5.18-8.47-5.18-14.31s1.71-10.61,5.14-14.31c3.43-3.7,7.85-5.55,13.28-5.55Zm0,3.41c-3.31,0-5.97,1.49-7.97,4.48-2,2.99-3.01,6.98-3.01,11.97s1.01,8.98,3.02,11.96,4.67,4.48,7.95,4.48,6.01-1.49,8.03-4.46c2.02-2.97,3.02-6.97,3.02-11.98s-1.01-8.95-3.04-11.95c-2.03-3-4.7-4.5-8.01-4.5Z"></path><path class="cls-1" d="M408.43,91.45v-2.87l4.31-.39,1.36-1.28v-28.74h-5.66v-2.48l9.23-2.83h3.03v4.34c3.18-1.76,5.74-2.99,7.68-3.7,1.94-.71,3.65-1.07,5.12-1.07,3.46,0,6.11,1.03,7.95,3.1,1.83,2.07,2.75,5.07,2.75,9v22.38l1.36,1.28,4.27,.39v2.87h-17.37v-2.87l3.8-.39,1.36-1.28v-21.02c0-2.97-.61-5.08-1.84-6.32-1.23-1.24-3.29-1.86-6.19-1.86-1.27,0-2.64,.21-4.11,.64-1.47,.43-3.06,1.08-4.77,1.96v26.6l1.36,1.28,3.8,.39v2.87h-17.41Z"></path><path class="cls-1" d="M463.08,52.86h3.1v34.05l1.36,1.28,4.27,.39v2.87h-17.84v-2.87l4.19-.39,1.36-1.28v-28.74h-5.55v-2.48l9.11-2.83Z"></path><path class="cls-1" d="M507.14,88.12c-2.22,1.29-4.41,2.26-6.55,2.91-2.15,.65-4.27,.97-6.36,.97-5.38,0-9.7-1.8-12.97-5.41-3.27-3.61-4.91-8.37-4.91-14.29s1.74-10.65,5.22-14.33,8.01-5.53,13.59-5.53c3.7,0,6.61,.7,8.73,2.11s3.18,3.3,3.18,5.68c0,1.27-.4,2.29-1.2,3.06-.8,.77-1.87,1.16-3.22,1.16-.59,0-1.19-.1-1.78-.31s-1.19-.5-1.78-.89v-6.52c-.62-.36-1.26-.64-1.9-.83s-1.29-.29-1.94-.29c-3.52,0-6.34,1.47-8.47,4.4-2.13,2.93-3.2,6.84-3.2,11.73s1.21,8.64,3.63,11.42c2.42,2.78,5.71,4.17,9.87,4.17,1.73,0,3.43-.28,5.08-.83s3.32-1.4,5-2.54v4.15Z"></path><path class="cls-1" d="M536.14,54.18v9h-3.92l-.62-5.62c-1.06-.57-2.07-1-3.03-1.28-.96-.29-1.91-.43-2.87-.43-2.07,0-3.68,.5-4.85,1.51s-1.74,2.42-1.74,4.23c0,1.47,.47,2.73,1.4,3.76,.93,1.03,2.71,2.19,5.35,3.45,.41,.21,1.05,.5,1.9,.89,3,1.37,5.17,2.61,6.52,3.72,.98,.78,1.73,1.75,2.25,2.93,.52,1.18,.78,2.48,.78,3.9,0,3.72-1.31,6.64-3.94,8.75-2.63,2.11-6.26,3.16-10.92,3.16-1.91,0-3.74-.14-5.49-.41-1.74-.27-3.35-.69-4.83-1.26v-10.32h3.8l.97,6.75c1.11,.65,2.23,1.13,3.35,1.44s2.26,.46,3.39,.46c2.25,0,4.05-.59,5.41-1.76,1.36-1.18,2.04-2.72,2.04-4.63,0-1.6-.46-2.93-1.4-3.97-.93-1.05-3.15-2.37-6.67-3.97-3.98-1.78-6.69-3.47-8.12-5.04-1.44-1.58-2.15-3.53-2.15-5.86,0-3.54,1.23-6.28,3.68-8.22,2.46-1.94,5.92-2.91,10.39-2.91,1.78,0,3.45,.15,4.98,.45,1.54,.3,2.98,.73,4.33,1.3Z"></path></g></g></svg>