<svg xmlns="http://www.w3.org/2000/svg" viewBox="0 0 1998.72 2006.47"><defs><style>.cls-1{fill:#65a0ef;}.cls-2{fill:#22ba02;}</style></defs><g id="Layer_2" data-name="Layer 2"><g id="Layer_1-2" data-name="Layer 1"><g id="Layer_2-2" data-name="Layer 2"><g id="Layer_1-2-2" data-name="Layer 1-2"><path class="cls-1" d="M1634.15,254.32a429.59,429.59,0,0,1-21.1-47.15q-10.72-8.23-21.61-16.15a430.94,430.94,0,0,0,29.43,68.9Q1627.53,257.15,1634.15,254.32Z"></path><path class="cls-1" d="M1480.14,258.25a355.75,355.75,0,0,0,24.86,45l13.75-4.7c-26.27-43.32-42.75-89.08-48.64-141.92q-2.38-21.42-3.1-42.89-7-3.66-14.06-7.21.61,25.43,3.45,50.82C1460.24,191.13,1466,227.14,1480.14,258.25Z"></path><path class="cls-1" d="M1377.56,163.77c7.29,55.44,22.28,114.72,51.62,163.73l13.09-4c-44.53-72.59-58.24-160.17-56.62-247.76Q1379,73,1372.4,70.37A646.58,646.58,0,0,0,1377.56,163.77Z"></path><path class="cls-1" d="M1359.79,347.77q5.94-1.66,11.89-3.37c-51.94-91.33-67.81-194.23-65.21-297.53q-6.93-2.2-13.87-4.29C1289.81,148.58,1306,254.27,1359.79,347.77Z"></path><path class="cls-1" d="M1595.44,270.24c-18.73-32.92-34.17-68.93-42.17-105.66q-8.28-5.45-16.63-10.73c6.26,42.51,23.75,84.06,45.53,121.57Q1588.81,272.85,1595.44,270.24Z"></path><path class="cls-1" d="M1543.78,289.74q6.67-2.4,13.31-4.85c-2.67-4.51-5.29-9.06-7.81-13.69-23.74-43.49-36.58-86.56-40.71-134.41q-7.47-4.36-15-8.61c3.68,50,15.54,98.75,40,143.77Q1538.49,281,1543.78,289.74Z"></path><path class="cls-1" d="M1452.74,293.51q5.92,11.57,12.74,22.71,7.24-2.31,14.44-4.65-6-9.3-11.66-18.91c-28-47.94-37-109.47-40.55-164.07q-1.12-17.46-1.25-34.91-7.64-3.57-15.32-7C1410.22,159.16,1420.76,231.06,1452.74,293.51Z"></path><path class="cls-1" d="M1394.33,337.88l12-3.51c-46.59-84.66-61.6-179-59.75-273.86q-6.9-2.52-13.84-4.92C1330.53,153.46,1345.81,250.8,1394.33,337.88Z"></path><path class="cls-1" d="M1305,319.15c6.15,12.87,12.9,25.66,20.22,38.22l11.77-3.23c-8.26-14.36-15.75-29.05-22.47-43.78C1275,223.68,1263.29,129.3,1266,35q-6.93-1.89-13.87-3.67C1249.32,130.12,1261.92,229,1305,319.15Z"></path><path class="cls-1" d="M1291.14,366.59l11.8-3.17c-61.92-102.67-80-220.59-77-338.46q-7-1.58-14-3.06C1209,142,1227.6,262.2,1291.14,366.59Z"></path><path class="cls-1" d="M1244.57,354.53q6,10.8,12.54,21.1l11.73-3.1q-5.88-9.43-11.4-19.26c-57.78-103.15-74.73-220-72.14-336.66q-7-1.29-14-2.49C1168.89,132,1186.16,250.27,1244.57,354.53Z"></path><path class="cls-1" d="M1196.6,337.9a517.42,517.42,0,0,0,26.73,46.58l11.68-3.05a507,507,0,0,1-25.57-44.73c-51.23-101.4-66.73-214.24-64.89-326.74q-7-1-14.07-1.89C1128.94,121.66,1144.82,235.58,1196.6,337.9Z"></path><path class="cls-1" d="M1156.24,402l11.49-3c-5.43-8.16-10.7-16.47-15.72-25-66.73-113-88.63-242.69-89.13-372.23q-7.07-.42-14.14-.74c1,130.31,23.48,260.7,90.65,374.29Q1147.46,388.92,1156.24,402Z"></path><path class="cls-1" d="M1058.27,428l11.11-3C993.88,316.4,954.94,187.63,943.1,54.42Q940.77,28.22,939.72,2q-7.05.45-14.07,1c1,21.49,2.57,43,4.83,64.4C944.17,197.37,984.23,322.29,1058.27,428Z"></path><path class="cls-1" d="M942.24,461.5c-96.71-126.16-145.74-279.32-164-436.12-4.56,1.05-9.13,2.12-13.68,3.23C784,185.72,834.47,338.79,931.69,464.8,935.17,463.69,938.7,462.6,942.24,461.5Z"></path><path class="cls-1" d="M1123.07,410.64l11.4-3q-5.76-8.47-11.24-17.19C1049.6,273.14,1024.15,136.72,1021.92.16Q1014.86,0,1007.8,0c3,140.05,30.17,279.78,107.55,399.08Q1119.15,404.92,1123.07,410.64Z"></path><path class="cls-1" d="M1179.34,377q5,8.25,10.24,16.24l11.61-3c-3.12-4.79-6.2-9.63-9.18-14.57-67.82-112.1-89-241.5-88.19-370.67q-7-.72-14.11-1.32C1089.32,133.81,1111,264.14,1179.34,377Z"></path><path class="cls-1" d="M813.76,505.62l9.86-3.77a840,840,0,0,1-89-126.22C680.76,281.6,646,179.26,624.41,73.85q-6.39,2.59-12.74,5.28c22.89,107.27,59.49,211.21,115.77,306.35A848.49,848.49,0,0,0,813.76,505.62Z"></path><path class="cls-1" d="M175.64,435.69q-2.91,4.23-5.77,8.49C249.75,556.86,356.11,653.3,465.39,736.24q15,11.37,30.26,22.25,1.92-3.3,3.87-6.58Q483.64,740.45,468,728.49C360,645.46,254.2,548.36,175.64,435.69Z"></path><path class="cls-1" d="M578.76,646.87c2-2,3.93-4,5.92-6A1264.49,1264.49,0,0,1,486.87,544,1225.84,1225.84,0,0,1,306.93,284.46c-.45-.87-.88-1.75-1.33-2.62-3,2.86-5.87,5.73-8.79,8.63A1240.13,1240.13,0,0,0,482.34,553,1300,1300,0,0,0,578.76,646.87Z"></path><path class="cls-1" d="M615.5,612.5q3.39-2.87,6.85-5.67-21.36-20.28-41.72-41.6C486.44,466.47,414.57,353.6,361,232q-4.77,4-9.48,8C406.58,362,480,475,576.17,573.9Q595.39,593.66,615.5,612.5Z"></path><path class="cls-1" d="M39.71,722.94q-1.17,4-2.29,8.07A1625.86,1625.86,0,0,0,214,865.71c61.82,40.65,125.62,77.08,190.7,110.81.63-2,1.26-4.07,1.9-6.11C342.68,937.11,280,901.14,219.3,861.05A1614.12,1614.12,0,0,1,39.71,722.94Z"></path><path class="cls-1" d="M73.13,626.47c-1.13,2.8-2.26,5.6-3.36,8.41C148.33,714.1,234.77,786,331.35,848q47.7,30.6,96.94,58c.74-2,1.5-4.1,2.25-6.14q-44.73-25.2-88.27-52.91C242.47,783.09,153.58,708.64,73.13,626.47Z"></path><path class="cls-1" d="M27.24,770.29c-.67,2.67-1.3,5.36-1.89,8.09Q83.84,826,147,868.61C226.32,922,309,969.44,393.77,1013.1c.59-2.06,1.19-4.11,1.79-6.17-81.28-42-160.64-87.65-236.91-138.71A1617,1617,0,0,1,27.24,770.29Z"></path><path class="cls-1" d="M17.3,817c-.5,2.67-1,5.33-1.47,8q30.59,23.16,62.35,45c97.48,67,200.09,125.71,305.49,179l1.71-6.23C283.61,991.19,184.5,934.49,90.18,869.89Q52.89,844.36,17.3,817Z"></path><path class="cls-1" d="M9.78,862.88c-.37,2.6-.72,5.2-1.07,7.81,1.62,1.14,3.22,2.3,4.84,3.43,114.34,80,235.72,148.82,360.46,211q.81-3.11,1.63-6.21C254.69,1018.48,137,951.62,25.9,874.26Q17.8,868.61,9.78,862.88Z"></path><path class="cls-1" d="M3.74,916.05c115.15,77.1,236.53,144.31,360.82,205.6l1.62-6.34C241.47,1053.7,119.76,986,4.45,908.2,4.2,910.82,4,913.43,3.74,916.05Z"></path><path class="cls-1" d="M.83,961.73c111.58,71.57,228.22,135.08,347.26,193.56l7,3.44c.54-2.15,1.09-4.29,1.63-6.44-122-59.77-241.5-124.8-355.57-198.48Q1,957.77.83,961.73Z"></path><path class="cls-1" d="M0,1000.13v8.09c89.79,55.5,182.41,106.43,276.66,154.12q34.29,17.36,68.88,34.11c.56-2.19,1.11-4.38,1.67-6.57q-31.11-15.12-62-30.67C188,1110.16,92.44,1057.62,0,1000.13Z"></path><path class="cls-1" d="M872,484.4l10.22-3.5c-72-90.38-124-195-155.34-308A1116.43,1116.43,0,0,1,699.94,46.65q-6.65,2.1-13.26,4.29a1116.54,1116.54,0,0,0,30.19,134C749.17,294.87,801.27,396.4,872,484.4Z"></path><path class="cls-1" d="M1004.74,442.93C912.05,317,870.53,164.62,858.4,10.41q-7,1-13.94,2.12C857.61,167.35,900.52,320,993.85,446.07Z"></path><path class="cls-1" d="M657.94,580.68c2.6-1.72,5.21-3.44,7.86-5.12C611.9,521.11,563.49,461.32,522.16,396c-41.89-66.17-75.8-136.32-103-209q-5.3,3.81-10.56,7.68C437,268.39,472.29,339.39,515.77,406.2,557,469.56,604.9,527.67,657.94,580.68Z"></path><path class="cls-1" d="M758.37,528.31c3.1-1.35,6.2-2.7,9.33-4-79.37-90.22-141-194.68-182.62-308.8-13-35.69-24.05-71.94-33.42-108.61q-6.07,3.06-12.13,6.2a1141.68,1141.68,0,0,0,36.66,114.34A975.26,975.26,0,0,0,758.37,528.31Z"></path><path class="cls-1" d="M705.82,552.77c2.41-1.22,4.83-2.43,7.28-3.62l1.56-.75c-70-75.29-128.78-160.57-173.42-254.38a1129.91,1129.91,0,0,1-58.12-149.24q-5.72,3.45-11.38,7a1130.41,1130.41,0,0,0,61.77,153.37C578.5,396.41,636.86,479.34,705.82,552.77Z"></path><path class="cls-1" d="M231.27,654.28c-41.5-36.58-79.47-77.69-114.88-120.73q-2.23,4.23-4.44,8.48c35.91,43.11,74.39,84.26,116.27,120.64,59.94,52.07,123.22,100.22,188.78,145q19.89,13.59,40.18,26.48c1-2.17,1.95-4.34,2.93-6.49q-20.73-13.3-41.07-27.31C353.74,755.27,290.79,706.76,231.27,654.28Z"></path><path class="cls-1" d="M193.59,546.54c-17.55-19.4-34.18-39.85-50.08-60.93q-2.26,3.75-4.49,7.52,20.89,27.21,43,53.43c43.3,51.2,95.37,96.49,146.71,139.43,46.7,39,95.25,76.9,146,111q1.59-3.15,3.2-6.28c-51-34.67-99.64-73.34-146.29-112.91C283.43,636.85,236.12,593.53,193.59,546.54Z"></path><path class="cls-1" d="M245.54,429.86q-16.56-22.58-31.83-46-3.5,4.45-6.93,8.93,16.07,24.13,33.47,47.38a1476.52,1476.52,0,0,0,278.3,281.65q2.46-3.66,5-7.3C418.67,632.58,324.06,536.92,245.54,429.86Z"></path><path class="cls-1" d="M378,503.84A1295.38,1295.38,0,0,1,256.91,332.45q-3.95,4.41-7.86,8.86a1308.47,1308.47,0,0,0,124.15,172A1401.76,1401.76,0,0,0,546.31,683.89q2.49-3.12,5-6.21A1390.37,1390.37,0,0,1,378,503.84Z"></path><path class="cls-1" d="M93.16,580.34q-1.91,4.1-3.77,8.21A1549.67,1549.67,0,0,0,388.18,837.42q26.6,17,53.7,32.91,1.25-3.12,2.52-6.23-22.9-13.61-45.4-27.94A1540.9,1540.9,0,0,1,93.16,580.34Z"></path><path class="cls-1" d="M54.94,675c-.93,2.67-1.84,5.33-2.75,8A1657,1657,0,0,0,194.58,802.49C265.07,855.06,339.26,900.68,415.77,942q1-3.12,2.08-6.23c-76.53-41.55-150.7-87.53-221.09-140.52A1643.46,1643.46,0,0,1,54.94,675Z"></path><path class="cls-1" d="M1090.33,419.33l11.27-3q-11.37-16.36-21.73-33.57c-69.42-115.93-95-249-99-382.52q-7.07.15-14.13.4c4.61,133.89,30.89,267.25,100.61,383.46Q1078.27,402.21,1090.33,419.33Z"></path><path class="cls-1" d="M1025.62,437l11.07-3.09q-10.1-13.94-19.47-28.44c-77.34-120-109.4-259.37-118-400.13q-7,.72-14,1.54c9.62,143.77,43.71,285.84,124.54,407.42Q1017.47,425.87,1025.62,437Z"></path><path class="cls-1" d="M963,455.17q5.34-1.6,10.72-3.19C894.12,344.82,846.87,217.86,826.37,84.5c-3.45-22.4-6.15-44.88-8.26-67.4q-6.92,1.29-13.81,2.68c2.6,26,6,51.87,10.4,77.65C836.84,227.53,884.86,350.77,963,455.17Z"></path><path class="cls-1" d="M901.23,474.56l10.43-3.4q-13.36-17-25.77-34.67C802.28,316.86,758.81,177.94,739.19,35.12q-6.75,1.83-13.48,3.77c20.56,142.05,64.76,280,148.14,399Q887,456.64,901.23,474.56Z"></path><path class="cls-1" d="M842.79,494.75q5-1.83,10.05-3.62A865.27,865.27,0,0,1,706.25,230.49c-19.69-55.75-34.11-113-44.51-170.94q-6.53,2.36-13,4.79c11.32,60.34,27,119.81,48.41,177.61A871.11,871.11,0,0,0,842.79,494.75Z"></path><path class="cls-1" d="M785.51,516.85q4.79-2,9.58-3.89C700.9,403,635.39,272,597.7,131.29q-5.55-20.67-10.29-41.52-6.25,2.83-12.47,5.77,5.82,24.45,12.69,48.7C626.7,281.82,692.65,409.42,785.51,516.85Z"></path><path class="cls-1" d="M740.3,536.35C633.56,418.88,560.52,276.93,516.85,125.24q-5.91,3.27-11.79,6.62c45,151.05,119.22,292,226.14,408.69C734.22,539.14,737.25,537.73,740.3,536.35Z"></path><path class="cls-1" d="M636.17,596.06c2.43-1.83,4.9-3.63,7.38-5.42-74.77-73.57-139.62-156.78-191.4-248.93a1166,1166,0,0,1-63.4-132q-5.08,3.94-10.13,8a1169.62,1169.62,0,0,0,66.66,134.88C497.44,442.62,562.09,524,636.17,596.06Z"></path><path class="cls-1" d="M299.94,340.83Q290,324,280.67,306.88q-4.2,4.38-8.36,8.81,7.28,13,14.92,25.84c64,107.23,143.85,204.39,235.85,288.77q19.15,17.57,39,34.69c1.86-2.13,3.75-4.24,5.64-6.33q-20.82-18-40.94-36.74C438.38,539.45,361.62,444.87,299.94,340.83Z"></path><path class="cls-1" d="M194.33,409.38q-3.17,4.31-6.28,8.64c48.76,69.84,105.26,133.79,167.22,193.22A1642.14,1642.14,0,0,0,507,739.61c1.37-2.2,2.76-4.38,4.15-6.56A1607.81,1607.81,0,0,1,359,602.52C298.07,543.12,242.28,479.09,194.33,409.38Z"></path><path class="cls-1" d="M596.46,629.4q3.18-3,6.42-5.9a1202.57,1202.57,0,0,1-161-180.7c-42.79-59.24-78.75-121.56-109.13-186.27q-4.59,4.13-9.14,8.32C355,330.16,392.06,393,436.24,452.71A1219.94,1219.94,0,0,0,596.46,629.4Z"></path><path class="cls-1" d="M681.2,566.19q4.13-2.4,8.32-4.74C622.68,491.64,565.21,413.2,519.74,326.87a1133.92,1133.92,0,0,1-69.23-161.45q-5.52,3.65-11,7.36a1137.81,1137.81,0,0,0,73,164.93C558.21,421.74,615.3,498.08,681.2,566.19Z"></path><path class="cls-1" d="M129.94,508.81c-1.56,2.76-3.11,5.51-4.64,8.28,96.06,117,212.87,216.93,340.34,298.67l3-6.35C341.92,727.32,224.71,626.36,129.94,508.81Z"></path><path class="cls-1" d="M6,893.36c115.54,79.23,237.83,147.78,363.3,210,.54-2.09,1.08-4.18,1.63-6.29-125.84-62.5-248.41-131.52-364-211.5C6.55,888.14,6.25,890.75,6,893.36Z"></path><path class="cls-1" d="M33.18,746.6c-.72,2.73-1.43,5.45-2.13,8.18A1642.67,1642.67,0,0,0,180.68,867.34C251.13,914.17,324.22,956.29,399,995.23c.62-2.05,1.23-4.11,1.85-6.15-71.41-37.33-141.24-77.63-208.64-122.26A1635,1635,0,0,1,33.18,746.6Z"></path><path class="cls-1" d="M47,699q-1.32,4.14-2.59,8.28c61.1,55.29,126.27,106.5,196.39,152.5,55,36.1,111.68,68.8,169.41,99.22.67-2,1.31-4,1.94-6-54.49-29-108-60-160.06-94C178.58,810.94,110.55,757.18,47,699Z"></path><path class="cls-1" d="M4.38,1096.65q.41,4.32.86,8.66,61.51,35.82,124.31,69.47C194,1209.4,259.43,1242.16,325,1274.67c.67-2.31,1.3-4.63,1.9-6.94-61.65-30.47-123.15-61.22-183.81-93.63Q73,1136.68,4.38,1096.65Z"></path><path class="cls-1" d="M2.38,1071.89q.29,4.24.62,8.49,81.66,48.19,165.64,92.42c53.43,28.2,107.52,55.2,161.76,81.86l1.83-6.84c-52-25.46-103.73-51.26-154.91-78.23Q88.66,1122.85,2.38,1071.89Z"></path><path class="cls-1" d="M7.09,1121.92c.35,2.95.71,5.89,1.09,8.84q42.59,24.48,85.75,48c74.26,40.43,149.79,78.39,225.35,116.29.67-2.35,1.33-4.7,2-7.06-73.34-36.64-146.6-73.43-218.66-112.56Q54.5,1149.27,7.09,1121.92Z"></path><path class="cls-1" d="M10.5,1147.75q.66,4.53,1.37,9.06,20.25,11.49,40.63,22.78c85.82,47.51,173.36,91.71,260.77,136.15.71-2.4,1.41-4.79,2.11-7.2-83.43-42.21-166.92-84.3-248.85-129.4Q38.39,1163.66,10.5,1147.75Z"></path><path class="cls-1" d="M14.73,1174.22q.81,4.65,1.65,9.28c95.54,53.58,193.2,103.1,290.51,153.29.76-2.43,1.51-4.86,2.25-7.31-93.59-48-187.45-95.53-279.34-146.8Q22.26,1178.46,14.73,1174.22Z"></path><path class="cls-1" d="M21.77,1210.85c91.85,50.85,185.32,98.63,278.31,147.34.8-2.46,1.6-4.94,2.4-7.42C208,1301.52,113,1253.1,19.79,1201.32Q20.77,1206.09,21.77,1210.85Z"></path><path class="cls-1" d="M28.15,1239c87.63,48.07,176.41,94,264.61,141q1.29-3.76,2.57-7.52c-89.9-47.61-180.35-94.18-269.49-143.22C26.59,1232.44,27.37,1235.7,28.15,1239Z"></path><path class="cls-1" d="M35.59,1267.8c83,45.12,166.73,88.75,249.64,134,.9-2.56,1.78-5.12,2.66-7.67-84.78-45.87-170.35-90.24-255-136.36C33.77,1261.09,34.68,1264.45,35.59,1267.8Z"></path><path class="cls-1" d="M44.19,1297.4c77.83,42.08,156.07,83.4,233.16,126.81.93-2.64,1.87-5.28,2.8-7.91C201,1372.21,120.76,1330.13,41.06,1287Q42.61,1292.22,44.19,1297.4Z"></path><path class="cls-1" d="M54.29,1328.47c71.92,39.09,143.88,78.07,214.65,119.22,1-2.73,2-5.45,2.94-8.17-73-41.94-147.22-81.76-221.24-121.9Q52.43,1323.05,54.29,1328.47Z"></path><path class="cls-1" d="M61.62,1349.07q2.12,5.73,4.29,11.43c59.35,32.67,118.43,65.78,176.4,100.81q8.82,5.34,17.69,10.76,1.59-4.29,3.16-8.57l-6.08-3.67C192.88,1421.26,127.35,1385,61.62,1349.07Z"></path><path class="cls-1" d="M112.33,1464q4.42,8.54,9,17c35.64,23.1,71.91,46.57,107.47,71.25q1.95-4.79,3.88-9.6c-34.38-23.49-69.28-45.93-103.53-68Q120.79,1469.24,112.33,1464Z"></path><path class="cls-1" d="M76,1386q2.5,6.06,5.09,12.08c40.67,22.14,81.12,44.67,120.27,69q24.3,15.12,48.89,30.77l3.42-9q-18.64-11.77-37.16-23.2C170.88,1437.4,123.48,1411.58,76,1386Z"></path><path class="cls-1" d="M91.83,1422.09q3.11,6.77,6.33,13.47c20.7,12,41.18,24.23,61.24,37.06,26.62,17,53.61,34.31,80.44,52.16q1.91-4.83,3.79-9.67c-24-15.72-48.11-31-71.91-45.88C145.57,1452.83,118.83,1437.27,91.83,1422.09Z"></path><path class="cls-1" d="M159.72,459.6c-1.78,2.76-3.55,5.54-5.3,8.31,72.9,95.8,159.41,178.78,255,253.65q37.17,29.12,75.9,55.31c1.19-2.18,2.39-4.35,3.58-6.51q-39.12-26.9-76.77-56.67C317.83,638.84,231.47,555.58,159.72,459.6Z"></path><path class="cls-1" d="M409.27,579.2a1342.88,1342.88,0,0,1-174.73-221q-3.73,4.46-7.41,8.94A1357.72,1357.72,0,0,0,405.26,588,1490.31,1490.31,0,0,0,532.61,701.81c1.59-2.16,3.18-4.31,4.8-6.45A1463.83,1463.83,0,0,1,409.27,579.2Z"></path><path class="cls-1" d="M63.72,650.63c-1,2.78-2.07,5.56-3.09,8.35,74.4,72.36,155.47,138.37,245,195.89,38.07,24.46,76.91,47.29,116.35,68.88.71-2,1.43-4.09,2.15-6.14-36.4-20.06-72.27-41.21-107.49-63.75C223.82,794.48,140.19,725.93,63.72,650.63Z"></path><path class="cls-1" d="M105,555.77q-2.1,4.22-4.15,8.43c63.83,71.85,134.33,138,213.26,196.36,44,32.56,89.45,62.37,135.91,90.1.91-2.15,1.82-4.29,2.75-6.42A1633.67,1633.67,0,0,1,316.44,753C238,694.28,168.13,627.85,105,555.77Z"></path><path class="cls-1" d="M82.49,604.1c-1.19,2.75-2.37,5.51-3.54,8.26,67.66,70.57,141.69,135.3,223.71,192.11,43.1,29.85,87.36,57.34,132.49,83l2.43-6.3c-45.28-26-89.66-53.81-132.85-84C223.11,740.06,149.59,675,82.49,604.1Z"></path><path class="cls-1" d="M1,1047.59q.18,4.17.4,8.33,99.41,59.52,202.42,112.89c43.59,22.72,87.61,44.59,131.8,66.14.59-2.25,1.17-4.5,1.76-6.75-42-20.44-83.84-41.2-125.28-62.75Q104.81,1109.67,1,1047.59Z"></path><path class="cls-1" d="M2,938.81c114.56,75,234.86,140.93,357.82,201.3l1.62-6.38C238,1073,117.35,1006.67,2.56,930.94,2.37,933.56,2.2,936.19,2,938.81Z"></path><path class="cls-1" d="M13.26,840c-.43,2.63-.86,5.27-1.27,7.91q18.39,13.44,37.18,26.46C154.09,946.86,264.92,1010,378.78,1067.14l1.68-6.25C270.3,1005.45,163.05,944.34,61.34,874.36Q36.94,857.56,13.26,840Z"></path><path class="cls-1" d="M22,793.73c-.57,2.69-1.12,5.37-1.67,8q45,35.28,92.52,67.73C201.17,929.58,293.71,982.58,388.66,1031l1.75-6.19C299,978.05,209.88,927,124.64,869.25Q71.58,833.33,22,793.73Z"></path><path class="cls-1" d="M.34,976.85c-.07,2.67-.13,5.33-.18,8,100.18,63.05,204.16,120,310.14,172.91q20,10,40.07,19.74L352,1171q-14.34-7-28.62-14.07C212.89,1102.09,104.51,1042.83.34,976.85Z"></path><path class="cls-1" d="M.21,1023.68c.05,2.74.13,5.47.21,8.21,77.37,47,156.7,90.9,237.26,132.34q51.17,26.31,103,51.33.84-3.3,1.7-6.62-45.78-22.25-91.15-45.32C165.88,1120,81.92,1073.64.21,1023.68Z"></path><path class="cls-1" d="M154.48,1537.45c21,14.18,41.87,28.63,62.39,43.54,1.4-3.29,2.78-6.6,4.16-9.9-26.05-18.61-52.61-36.52-79.15-54.15Q148,1527.25,154.48,1537.45Z"></path><path class="cls-1" d="M204.5,1609.53c1.41-3.17,2.79-6.35,4.18-9.54q-12.09-9.12-24.39-18Q194.13,1595.88,204.5,1609.53Z"></path><path class="cls-2" d="M1919.21,257l-.65-1q-3.69,7-7.6,14c1.49,2.14,3,4.27,4.51,6.39Q1917.48,266.65,1919.21,257Z"></path><path class="cls-2" d="M1907.9,308.71q-6-7.21-11.68-14.64-3.88,5.93-7.94,11.75,7.53,9.33,15.41,18.35Q1905.88,316.46,1907.9,308.71Z"></path><path class="cls-2" d="M1890.92,364.34q2.32-6.58,4.5-13.21-11.51-12-22.43-24.48-4,5.18-8.17,10.28Q1877.5,351,1890.92,364.34Z"></path><path class="cls-2" d="M1877.39,399.63q2.43-5.83,4.74-11.72-17.06-15.74-33.11-32.46-4.15,4.67-8.42,9.25Q1858.39,382.76,1877.39,399.63Z"></path><path class="cls-2" d="M1862.09,495.21c-30.32-21.6-60.15-44.1-88.47-68.2q-4.42,3.62-8.95,7.18c34.88,29.16,71.88,56,109.19,81.8Q1868.1,505.54,1862.09,495.21Z"></path><path class="cls-2" d="M1804.82,561.47q-1,5.07-2.09,10.14l23.84,15.62c35.46,23.24,72.35,44.47,109.64,65q-2.36-6.4-4.81-12.77c-32.83-18.51-65.26-37.67-96.68-58.33Q1819.82,571.35,1804.82,561.47Z"></path><path class="cls-2" d="M1803.76,560.77c-37-24.43-74-49.41-109.68-76.13q-4.65,3-9.35,6c37,27.4,75.4,53,113.64,78.1Q1801.16,564.81,1803.76,560.77Z"></path><path class="cls-2" d="M1790,626.51c55,31.85,111.78,61,167.87,90.91q-1.59-5.38-3.23-10.75c-54.48-28.94-109.6-57.33-162.44-89C1791.45,620.64,1790.71,623.58,1790,626.51Z"></path><path class="cls-2" d="M1761.51,609.64q3.52-3.2,6.92-6.47l-1.16-.72C1724.5,575.52,1681,547.94,1639,518.27q-5.09,2.94-10.22,5.84c42.9,30.13,87.32,57.94,131,84.49Z"></path><path class="cls-2" d="M1719,642.79c2.59-1.77,5.14-3.55,7.68-5.36q-32.81-19.08-64.92-39.24c-25.43-16-51.85-32.38-78.21-49.49q-4.69,2.46-9.4,4.89c24.5,15.83,49.09,31.06,73,46.07Q1682.65,621.93,1719,642.79Z"></path><path class="cls-2" d="M1776.64,675.1c65.09,35.64,131.38,69.4,197.2,103.81-.74-3.27-1.5-6.55-2.28-9.81-64.38-33.67-129.12-66.86-192.59-102C1778.2,669.76,1777.43,672.43,1776.64,675.1Z"></path><path class="cls-2" d="M1868.17,420.85q-22.55-19-43.75-39.44c-2.84,2.83-5.73,5.63-8.64,8.42,15.28,14.44,31.14,28.29,47.43,41.66Q1865.73,426.19,1868.17,420.85Z"></path><path class="cls-2" d="M1853.77,450.56c-18.68-14.57-36.93-29.66-54.48-45.46-2.91,2.6-5.83,5.18-8.8,7.75,18.74,16.53,38.22,32.31,58.14,47.52Q1851.24,455.48,1853.77,450.56Z"></path><path class="cls-2" d="M1900.94,568.73q-4.08-8.55-8.32-17-8.88-5.88-17.72-11.85c-43.07-29.18-86.49-59.36-127.34-92.47-3,2.26-6,4.5-9.09,6.73,38.76,30.93,79.67,59.36,120.3,86.85Q1879.7,555.11,1900.94,568.73Z"></path><path class="cls-2" d="M1920.18,611.68q-3-7.15-6.11-14.25c-55.61-33.92-110.15-69.52-163-108.44q-15-11.07-29.84-22.58-4.59,3.19-9.23,6.35,15,11.52,30.2,22.58C1799.84,537.31,1859.44,575.37,1920.18,611.68Z"></path><path class="cls-2" d="M1796.79,598.48c49.6,29.95,100.08,58.32,150.85,86.35-1.3-3.91-2.61-7.82-4-11.73-48.77-27.19-97.19-54.81-144.75-84Q1797.87,593.8,1796.79,598.48Z"></path><path class="cls-2" d="M1781.8,589.36q3.14-3.48,6.11-7c-32.56-20.19-64.7-41.16-96.26-63.27q-12.29-8.61-24.49-17.46-4.74,2.88-9.52,5.75,13,9.24,25.8,18.09Q1731.8,558.95,1781.8,589.36Z"></path><path class="cls-2" d="M1783.45,651.15c60.32,34.17,121.9,66.38,183.36,98.74q-1.3-5-2.65-10.06c-59.91-31.65-119.82-63.36-178.43-97.07C1785,645.56,1784.22,648.35,1783.45,651.15Z"></path><path class="cls-2" d="M1741.16,626.7q3.67-2.87,7.26-5.8Q1721,604.49,1694,587.29c-27.5-17.61-54.92-35.41-81.85-53.9q-4.76,2.61-9.54,5.19c25.21,17.16,50.83,33.74,76.53,50.13Q1709.79,608.26,1741.16,626.7Z"></path><path class="cls-2" d="M1772.9,687.58c-.79,2.58-1.59,5.15-2.38,7.72,42,22.2,84.27,44,126.38,66.22q41.44,21.83,82.61,44.09c-.63-3.21-1.29-6.43-2-9.63q-37.79-20.46-75.81-40.52C1858.77,732.76,1815.7,710.39,1772.9,687.58Z"></path><path class="cls-2" d="M1706.05,651.36c-50.67-28-100.66-57.22-149.33-88.87l-9.59,4.79c49.2,31.73,99.73,61,150.93,89.09Q1702.08,653.9,1706.05,651.36Z"></path><path class="cls-2" d="M1762.94,718.89c73.78,38.29,148.24,75.43,221.66,114.36-.51-3-1-6.07-1.59-9.1-72.2-38-145.42-74.43-217.78-112.24Q1764.09,715.41,1762.94,718.89Z"></path><path class="cls-2" d="M1672.89,671.14q4-2.22,7.88-4.47-42.12-23.25-83.39-47.91c-23-13.84-46.21-27.8-69.11-42.22l-10,4.81c24.08,15.06,48.51,29.52,72.82,43.75Q1631.62,648.79,1672.89,671.14Z"></path><path class="cls-2" d="M1758.63,731.64c-.81,2.39-1.63,4.77-2.46,7.16,60.56,30.67,121.3,61,181.13,92.73q25.76,13.66,51.34,27.62c-.43-3-.88-6-1.33-9q-22.72-12.36-45.59-24.52C1881.24,793.46,1819.82,762.79,1758.63,731.64Z"></path><path class="cls-2" d="M1649.43,683.77q4.21-2.19,8.4-4.42c-47.41-25.25-94.27-51.46-140-79.56q-8.36-5.13-16.64-10.32l-9.56,4.47q6.09,3.78,12.2,7.52C1551.38,630.56,1600.12,657.66,1649.43,683.77Z"></path><path class="cls-2" d="M1634.15,691.55c-54.33-28.31-108.1-57.62-160.56-89.29-3.16,1.45-6.34,2.89-9.51,4.33,52.81,31.6,106.92,60.87,161.55,89.18Q1629.89,693.69,1634.15,691.55Z"></path><path class="cls-2" d="M1751.66,751.5c-.84,2.32-1.67,4.63-2.52,6.94q36,18.12,72,36.39,86.13,44,170.87,90.29-.51-4.43-1.06-8.82-76.52-41.92-154.29-81.68Q1794.26,772.87,1751.66,751.5Z"></path><path class="cls-2" d="M1736.57,791.43c-.86,2.17-1.73,4.33-2.6,6.5,42.06,20.62,84,41.4,125.59,62.85q69.12,35.69,136.94,73.57c-.18-2.81-.38-5.61-.59-8.42q-60.08-33.49-121.23-65.2C1829,837,1782.83,814.16,1736.57,791.43Z"></path><path class="cls-2" d="M1575,719.57q4.23-1.92,8.49-3.89c-52.67-26.7-104.87-54.25-156-83.75q-4.41-2.55-8.81-5.14l-9.38,4.1c1.64,1,3.28,1.92,4.92,2.86C1467,664,1520.77,692.22,1575,719.57Z"></path><path class="cls-2" d="M1710.29,853.25c96.64,47.07,192.49,95.68,285.79,149.4l2.64,1.53V996.3c-93.3-53.58-189.1-102.11-285.65-149.22Q1711.69,850.17,1710.29,853.25Z"></path><path class="cls-2" d="M1502,753.14c2.78-1.28,5.55-2.58,8.32-3.87l-20.51-10c-50.82-24.74-101.71-50.18-151-78.22l-9.11,3.85c50.94,28.9,103.64,55,156.25,80.48Z"></path><path class="cls-2" d="M1405.54,796.12l8.26-3.57q-55.87-26-111.28-53.06-34-16.68-67.13-34.67l-8.67,3.69q35.85,19.46,72.75,37.33Q1352.26,771.54,1405.54,796.12Z"></path><path class="cls-2" d="M1679.17,915.61q-1.64,2.82-3.27,5.58c40.4,19.33,80.56,39.16,120.33,59.85,67.38,35.05,133.68,72.2,198.37,112q.33-3.76.64-7.54c-64.08-39.18-129.72-75.8-196.38-110.42C1759.3,954.54,1719.35,934.84,1679.17,915.61Z"></path><path class="cls-2" d="M1550.12,730.92l8.54-3.89c-47.37-23.72-94.42-48.06-140.77-73.7q-13.12-7.26-26.12-14.82l-9.2,4q15.27,8.85,30.72,17.31C1458.39,684.47,1504.11,708,1550.12,730.92Z"></path><path class="cls-2" d="M1728.86,810.47c-.88,2.15-1.79,4.29-2.69,6.43,52.09,25.38,104,51.05,155.34,77.91q58.35,30.56,116.28,62.81-.18-4.11-.39-8.2-55.9-31.06-112.26-60.49C1833.52,861.9,1781.26,836.05,1728.86,810.47Z"></path><path class="cls-2" d="M1599.58,708.24l8.42-4c-46.36-23.94-92.27-48.67-137.26-75q-12.36-7.23-24.59-14.64l-9.5,4.23q14.28,8.58,28.75,16.88C1509.48,661.08,1554.33,685,1599.58,708.24Z"></path><path class="cls-2" d="M1743.9,772.48q-1.26,3.35-2.53,6.66c61.72,30.47,123.41,61,184.12,93.18q34.71,18.42,69.07,37.44-.39-4.26-.82-8.54-32-17.64-64.23-34.78C1868.35,834,1806.12,803.24,1743.9,772.48Z"></path><path class="cls-2" d="M1636,976.66q-2.18,2.46-4.38,4.86c118.75,57.31,234.75,120,344.84,193.1l6.62,4.43c.44-2.46.86-4.92,1.28-7.38l-5.11-3.4C1869.52,1095.91,1754.08,1033.66,1636,976.66Z"></path><path class="cls-2" d="M1310,836.55l8.23-3.44Q1283,817.45,1248,801.47c-37.52-17.18-75.74-34.22-113.11-52.77l-8.53,3.88c39.45,19.46,79.91,37.19,119.38,55.15Q1277.79,822.31,1310,836.55Z"></path><path class="cls-2" d="M971.31,1000.3c-48.87-20-97.55-40.44-145.64-61.94q-2.38,2.4-4.74,4.87c47.91,21.34,96.4,41.62,145.07,61.53C967.76,1003.25,969.53,1001.77,971.31,1000.3Z"></path><path class="cls-2" d="M1785.11,1458.61c-65.67-62.75-136.61-119.83-211-171.89-70-49-146-88.6-223-125.5q-13.47-6.45-27-12.75l-7.89,3.26q16.89,7.86,33.66,15.93c76.83,37.06,152,77,221.74,126.35,74,52.33,144.39,109.76,209.42,172.9q33.95,33,64.69,67.75c1.71-2.72,3.39-5.46,5.08-8.2Q1819.51,1491.53,1785.11,1458.61Z"></path><path class="cls-2" d="M1086.22,932c-54.61-22.86-109-46.21-162.75-71l-6.26,4.17c53.36,24.54,107.34,47.68,161.53,70.35C1081.22,934.33,1083.71,933.15,1086.22,932Z"></path><path class="cls-2" d="M1458.15,1091.91l-7.61,3.29c118.74,56.59,233.52,120.35,340.76,197.76a1317.43,1317.43,0,0,1,126.45,104.19c1.1-2.57,2.2-5.14,3.28-7.72a1329.35,1329.35,0,0,0-127.28-103.74C1688,1210.13,1574.92,1147.58,1458.15,1091.91Z"></path><path class="cls-2" d="M1501.13,1072.09l-7.2,3.45c139.33,66.19,274.4,142.2,394.73,239.19q23.68,19.08,46.51,39c.94-2.51,1.88-5,2.8-7.53q-23-19.8-46.69-38.77C1772,1212.32,1638.66,1137.47,1501.13,1072.09Z"></path><path class="cls-2" d="M1123.07,915.4l7.81-3.41c-56.89-24-113.55-48.6-169.52-74.74-2.25,1.35-4.49,2.69-6.72,4l.9.42C1010.87,867.46,1066.86,891.69,1123.07,915.4Z"></path><path class="cls-2" d="M1114.18,1299q-34.67-17.87-69.75-34.79l-8.65,3.24q35.45,17.17,70.5,35.25c137.44,71,260.36,179.07,352.91,302.75,49.34,65.94,89.48,137,121.78,211.56q5-3.65,10-7.34c-32.4-72.84-72.31-142.35-121-206.9C1376.4,1478.55,1252.64,1370.4,1114.18,1299Z"></path><path class="cls-2" d="M861.38,1180.89c-50.51-22-101.2-43.52-151.77-65.27-.9,1.82-1.81,3.64-2.71,5.47,50.88,21.91,101.86,43.64,152.64,65.84C860.14,1184.91,860.76,1182.9,861.38,1180.89Z"></path><path class="cls-2" d="M885.62,1114c-47.82-19.93-95.69-39.74-143.33-60l-2.94,5.22c47.84,20.35,95.9,40.27,143.9,60.33C884,1117.62,884.82,1115.78,885.62,1114Z"></path><path class="cls-2" d="M1234.13,1272q-47-24.55-94.9-47.15l-8.06,3.39q46.62,22.14,92.46,45.93c143.31,74.75,271.4,187.4,371.24,314a1126.24,1126.24,0,0,1,93.69,139.28q4.2-4,8.36-8.09A1129.57,1129.57,0,0,0,1606.77,1587C1506.36,1460.14,1377.85,1347.08,1234.13,1272Z"></path><path class="cls-2" d="M851,1217.86c-52.5-23-105.31-45.38-158-68l-2.64,5.62c53,22.82,106.22,45.41,159.06,68.71Z"></path><path class="cls-2" d="M1054.34,1313.43q-30.18-15.54-60.75-30.28l-8.7,3.32q29.43,14.27,58.53,29.2c135.47,69.7,256.86,174.67,346.82,297.56,55.28,75.53,97.68,158,129.67,244.55,3.64-2.24,7.25-4.5,10.86-6.78-32.16-84.56-74.29-165.17-128.63-239.13C1311.76,1488.86,1190.13,1383.34,1054.34,1313.43Z"></path><path class="cls-2" d="M990.56,1326.37q-23.12-11.86-46.45-23.29-4.12,1.8-8.23,3.64,21.87,10.76,43.55,21.87c133.69,68.67,254,170.35,341.69,292.67,60.09,83.82,103.19,176.45,133.35,273.53q5.8-3,11.59-6.09c-30.57-95.38-73.66-186.36-133-268.84C1245,1497.45,1124.54,1395.2,990.56,1326.37Z"></path><path class="cls-2" d="M842.57,1255.27c-54.61-24.81-109.68-48.66-164.72-72.57-.87,1.91-1.73,3.82-2.6,5.74,55.49,24.17,111,48.32,166,73.5C841.7,1259.72,842.13,1257.49,842.57,1255.27Z"></path><path class="cls-2" d="M928.25,1340.63q-15-7.71-30-15.23-3.74,2.07-7.37,4.19,13,6.56,26,13.23c131.51,67.82,250.65,166.4,335.77,288,63.27,90.36,105.43,191.22,132.44,296.56,4.1-1.73,8.17-3.49,12.24-5.28-27.6-104-70-203.43-132.68-292.72C1179.22,1507.74,1060,1408.56,928.25,1340.63Z"></path><path class="cls-2" d="M835.76,1295c-57.18-27.17-115-53-173-78.57-.87,2-1.73,4-2.6,5.91,58.48,26,116.87,52.14,174.56,79.78Q835.25,1298.51,835.76,1295Z"></path><path class="cls-2" d="M830.86,1337.55c-60.32-30.32-121.58-58.7-183.08-86.6-.87,2-1.73,4-2.6,6.07,62.19,28.36,124.12,57.28,185.05,88.24Q830.53,1341.41,830.86,1337.55Z"></path><path class="cls-2" d="M864.39,1354.66l-5.94-3.06c-2.06,1.66-4.07,3.35-6,5.05l.29.15c129.6,67.28,248,162.53,331,283.63,65.34,95.4,105.48,202.8,128.6,314.45q6.4-2.14,12.77-4.36c-23.81-110.63-64.31-217-129.29-311.54C1112.59,1517.88,994.19,1422,864.39,1354.66Z"></path><path class="cls-2" d="M798.77,1368.37c-54.72-28.63-110.31-55.49-166.22-81.69l-2.67,6.3c52.76,24.88,105.22,50.39,156.9,77.46,128,67,246.23,158.75,327.4,279.66,66.36,98.85,103.67,210.91,122.52,326.76q6.61-1.63,13.21-3.38c-19.58-115.2-57.37-226.51-123.55-324.84C1045,1527.79,926.91,1435.4,798.77,1368.37Z"></path><path class="cls-2" d="M728.46,1380.22c-36.87-19.45-74.12-38.13-111.57-56.4l-2.76,6.57c35.15,17.27,70.1,34.93,104.71,53.27,126.72,67.13,245.29,155.08,325.15,276.09,66.39,100.63,100.4,215.3,115,333.2,4.52-.75,9-1.54,13.53-2.34-15.34-118.11-50.12-232.85-117-333.52C974.93,1535.82,855.86,1447.42,728.46,1380.22Z"></path><path class="cls-2" d="M1659,947.31c-1.24,1.77-2.49,3.52-3.75,5.23,71.4,34.27,142,70.19,211,109.35,41.53,23.56,82.94,48,123.5,73.71.33-2.53.67-5.06,1-7.59-40.13-25.17-81-49.07-122-72.19C1800.19,1017,1730,981.36,1659,947.31Z"></path><path class="cls-2" d="M1366.06,813l-1.76-.79c-60.49-27.45-120.69-55.07-178.92-85.88l-8.58,3.75c58.93,31,119.84,58.8,181,86.42Z"></path><path class="cls-2" d="M1453.54,775.12l8.27-3.69c-38.27-18.25-76.4-36.79-114.25-55.93q-30.8-15.57-61-32.33l-8.85,3.72q32.76,18.21,66.35,35Q1398.51,749.13,1453.54,775.12Z"></path><path class="cls-2" d="M1696.71,882.21q-1.43,3-2.88,5.91c50.26,24.11,100.24,48.81,149.59,74.82q78.15,41.17,154.18,86.2c.12-2.55.24-5.1.34-7.66q-74.67-44.16-151.56-84.45C1797,931,1747,906.33,1696.71,882.21Z"></path><path class="cls-2" d="M1169,895.64l8-3.39c-39.06-16.65-78-33.52-116.72-51-19.54-8.82-39.3-17.63-59-26.68l-7.35,4c21.69,9.84,43.41,19.4,64.77,29C1095.19,864,1132,879.93,1169,895.64Z"></path><path class="cls-2" d="M1541.06,1051.34c-2.19,1.23-4.41,2.47-6.65,3.69,82.68,39.43,163.75,82.07,241.69,130.49a1626.69,1626.69,0,0,1,174.11,125.12c.81-2.5,1.6-5,2.39-7.49a1646.18,1646.18,0,0,0-174.55-124.28C1701.51,1131.7,1622.05,1090,1541.06,1051.34Z"></path><path class="cls-2" d="M1608.91,1003.84q-2.54,2.26-5.11,4.46c52.26,25,104,51.2,154.76,79.26,74.26,41,147,85.13,215.77,134.77q.86-3.81,1.68-7.63c-68.75-49.09-141.49-92.72-215.47-133.37C1710.73,1054,1660.08,1028.35,1608.91,1003.84Z"></path><path class="cls-2" d="M1262.49,856.35l8.17-3.4-7.36-3.23c-58.43-25.63-116.69-51.79-174-79.88l-7.53,3.59c58.68,29.45,119.08,56,179.76,82.5Z"></path><path class="cls-2" d="M1223.41,872.66C1163.14,847,1102.64,821,1043.74,792.18l-7.77,4c58.81,28.67,119.22,54.42,179.3,79.93Z"></path><path class="cls-2" d="M1577.34,1028.67q-2.92,2.05-5.91,4c60.61,29,120.42,59.62,178.83,93A1848.42,1848.42,0,0,1,1963,1268c.68-2.47,1.34-5,2-7.45a1877.44,1877.44,0,0,0-212.82-141.17C1695,1086.88,1636.55,1057,1577.34,1028.67Z"></path><path class="cls-2" d="M1312.29,1225.31q-39.75-20.2-80.3-39l-8,3.3q43.79,20.33,86.71,42.22c151.36,77.56,286.66,187,398.51,315.08q35.43,40.56,67.87,84c2.32-2.89,4.63-5.78,6.92-8.7-22.28-29-45.7-57.11-69.69-84.06C1600.68,1410.59,1464.61,1302.73,1312.29,1225.31Z"></path><path class="cls-2" d="M919.51,1054.69c-47.22-19.14-94.36-38.46-141.09-58.56q-1.8,2.58-3.58,5.21c46.72,20,93.84,39.31,141,58.43Z"></path><path class="cls-2" d="M1656.17,1408.21c-65.88-57.36-136.55-113.1-212.64-156.32-53.83-30.57-109.16-58.4-165.27-84.55l-7.94,3.26c58.25,27.15,115.66,56.11,171.42,88.08,75.47,43.28,145.72,100,210.78,157.5a1477,1477,0,0,1,161.2,166.35q3-4.18,5.9-8.39A1500.35,1500.35,0,0,0,1656.17,1408.21Z"></path><path class="cls-2" d="M944.11,1025.43c-47.7-19.62-95.3-39.48-142.55-60.16-1.33,1.63-2.65,3.29-4,5,47.11,20.58,94.56,40.35,142.1,59.9C941.14,1028.54,942.62,1027,944.11,1025.43Z"></path><path class="cls-2" d="M1006,975.11c-50.26-20.8-100.37-42-150-64.24q-3.4,2.86-6.74,5.74C899.1,938.45,949.52,959,999.61,979.32Q1002.78,977.19,1006,975.11Z"></path><path class="cls-2" d="M1786.75,1393.86c-74.48-63.35-153.73-123-238.52-171.85-58.21-33.56-118-63.94-178.78-92.39l-7.77,3.24c62.91,29.45,124.81,61,184.93,96,84.26,49,163,109.42,236.77,173a1196,1196,0,0,1,89.86,86.14q2.22-4,4.4-8A1186.92,1186.92,0,0,0,1786.75,1393.86Z"></path><path class="cls-2" d="M1044.12,952.83c-52.27-21.72-104.36-43.88-155.86-67.3-1.94,1.43-3.87,2.86-5.78,4.31C933.62,913,985.33,935,1037.23,956.56,1039.51,955.31,1041.81,954.06,1044.12,952.83Z"></path><path class="cls-2" d="M1415,1110.42l-7.82,3.32c94.87,44.3,187.41,93.49,273.41,152.78,76.69,52.88,150.68,109.5,216.72,175.18,1.24-2.54,2.47-5.08,3.69-7.64-66.7-65.52-140.92-122-218.2-174.73C1598.48,1201.77,1507.87,1153.75,1415,1110.42Z"></path><path class="cls-2" d="M901.09,1083.12c-47.18-19.37-94.34-38.77-141.21-58.76-1,1.67-2.09,3.37-3.13,5.07,47,20,94.19,39.45,141.44,58.89Q899.62,1085.7,901.09,1083.12Z"></path><path class="cls-2" d="M1291.78,1258c-34.92-18.4-70.3-35.84-106-52.61l-8,3.32c34.89,16.41,69.47,33.45,103.61,51.41,146.45,77,277.59,191.6,381.44,319.93q38.76,47.9,72.6,99.44,3.78-4.12,7.51-8.3-32-47.62-68.17-92.24C1570.28,1450.42,1438.67,1335.45,1291.78,1258Z"></path><path class="cls-2" d="M872.49,1147.56c-49.1-20.77-98.33-41.33-147.37-62.25l-2.83,5.4c49.31,21,98.79,41.72,148.13,62.65C871.1,1151.42,871.8,1149.49,872.49,1147.56Z"></path><path class="cls-2" d="M1303.76,1366.91c-64.73-48.06-133.78-85.22-206.48-119.77-1.69-.81-3.39-1.6-5.08-2.4l-8.06,3.45,11.32,5.39c72.39,34.68,140.5,72.38,204.75,120.71,64.94,48.86,125.46,103.65,179.26,164.62,63.17,71.59,115.3,150.57,157.57,234.59,3.09-2.57,6.15-5.17,9.21-7.77-43.52-84.4-97-163.6-161.44-235.24C1430.28,1469.9,1369.18,1415.47,1303.76,1366.91Z"></path><path class="cls-2" d="M1721.12,828.79q-1.35,3.12-2.71,6.24,32.14,15.48,64,31.38c73.11,36.59,145.28,74.85,216.1,115.36,0-2.67-.11-5.35-.18-8.06q-99.07-56.43-201.25-107.58Q1759.34,847.13,1721.12,828.79Z"></path><path class="cls-2" d="M1533.15,738.68c-57-28-113.34-57-168.18-88.67l-9.23,3.93c55,31.75,111.67,60.75,168.9,88.68Q1528.84,740.66,1533.15,738.68Z"></path><path class="cls-2" d="M1705.08,864.56l-2.81,6q36.13,17.38,72,35.31c75.46,37.83,150.63,77.58,224.16,120.26.06-2.64.11-5.29.15-7.93-72.69-41.88-146.93-81-221.28-118.25Q1741.36,882,1705.08,864.56Z"></path><path class="cls-2" d="M1477.52,764.36l8-3.65c-57.82-27.78-115.21-56.38-171.49-87.13-.69-.37-1.37-.76-2-1.13l-9,3.8,7.11,3.87C1365.17,709.69,1421.16,737.38,1477.52,764.36Z"></path><path class="cls-2" d="M1688.11,899.34q-1.53,2.91-3.06,5.74c76.3,36.67,151.89,74.78,225.84,116.31q43.11,24.21,85.43,49.8c.18-2.52.34-5,.5-7.58q-41.11-24.72-83-48.17C1839.89,974,1764.34,936,1688.11,899.34Z"></path><path class="cls-2" d="M1429.75,785.61,1438,782q-16.14-7.59-32.25-15.23c-48.89-23.19-97.47-46.93-144.61-72.86l-8.85,3.75c49,26.84,99.6,51.33,150.48,75.31Z"></path><path class="cls-2" d="M1666.14,936.84c111.61,53.75,221.49,111.92,326.24,177.95q.43-3.86.84-7.71c-104.09-65-213.14-122.46-323.6-175.66Q1667.9,934.17,1666.14,936.84Z"></path><path class="cls-2" d="M1389.72,802.92c-60.67-27.83-121-56.37-180.31-87l-8.61,3.71c59.41,30.58,119.85,59.06,180.62,86.83Z"></path><path class="cls-2" d="M1342,823.13c-61.25-27.27-122.48-54.84-181.75-85.79q-4.27,1.89-8.52,3.79c59.36,30.86,120.68,58.34,182,85.48Z"></path><path class="cls-2" d="M1647.88,962.33q-2,2.56-4.05,5c80.42,38.64,159.72,79.52,236.88,124.74q53.85,31.58,105.9,65.68c.39-2.5.76-5,1.14-7.53q-51.39-33.46-104.54-64.3C1806.51,1041.21,1727.73,1000.69,1647.88,962.33Z"></path><path class="cls-2" d="M1623.07,990.45q-2.35,2.37-4.74,4.66,55.58,26.61,110.21,55.25c85.9,45.28,170.63,94.33,250.5,149.8.47-2.37,1-4.74,1.42-7.12-80.28-54.49-164-103.71-249.94-148.82Q1677.3,1016.27,1623.07,990.45Z"></path><path class="cls-2" d="M1286.16,846.49l8.19-3.41q-29.86-13.22-59.64-26.63c-41-18.49-82.85-36.77-123.74-56.79l-7.86,3.66c42.78,20.91,86.56,40.09,129.57,59.4Q1259.38,834.71,1286.16,846.49Z"></path><path class="cls-2" d="M1602,1020.29l-8.08-3.86c-1.82,1.43-3.67,2.86-5.53,4.26l12.24,5.88c94,45.43,185.84,95.55,273.79,151.93q48.66,31.2,94.75,65.89c.61-2.48,1.22-5,1.81-7.44q-45.93-34.1-94.31-65C1788.33,1115.74,1696.23,1065.69,1602,1020.29Z"></path><path class="cls-2" d="M1238.73,866.26l8.11-3.39q-65.58-28.5-130.56-58.52-25-11.61-49.76-23.52l-7.82,3.85c18.46,8.86,37,17.48,55.62,26.06C1155.55,829.78,1197.08,848.15,1238.73,866.26Z"></path><path class="cls-2" d="M1521.48,1061.91c-2.3,1.19-4.63,2.37-7,3.56,58.93,28,117.06,57.72,173.83,90.12a1704.86,1704.86,0,0,1,254.18,177.86q1.32-3.75,2.61-7.52a1725.91,1725.91,0,0,0-255.22-177C1634.85,1117.77,1578.54,1089.06,1521.48,1061.91Z"></path><path class="cls-2" d="M1153.64,902.17c-58.09-24.18-116.72-48.61-174-75.59-2.41,1.38-4.8,2.76-7.19,4.15,57,26.73,115.39,50.95,173.18,74.88Z"></path><path class="cls-2" d="M1057.59,945.84c2.39-1.21,4.8-2.42,7.22-3.61-47.21-19.72-94.26-39.79-140.91-60.8l-18.4-8.28c-2,1.41-4,2.82-6,4.25l23.22,10.41C967.37,907.81,1012.41,927,1057.59,945.84Z"></path><path class="cls-2" d="M1436.5,1101.26l-7.65,3.26c148.55,70,293.86,152,418.34,259.5q31.18,26.94,60.62,55.55c1.16-2.52,2.3-5.06,3.44-7.59q-29.74-28.49-61.17-55.35C1726.45,1251.2,1583.24,1170.42,1436.5,1101.26Z"></path><path class="cls-2" d="M1683.82,1340.17c-104.81-81.11-218.69-144.92-337.34-201l-7.86,3.26c120.63,57,236.09,122.14,342.27,205.34,62.69,49.12,125.7,102.21,180.18,161.5q2.29-3.9,4.55-7.81C1810.53,1442.2,1747.31,1389.3,1683.82,1340.17Z"></path><path class="cls-2" d="M988.61,987c-49.47-20.44-98.79-41.23-147.66-63-1.37,1.23-2.75,2.45-4.09,3.69l-.94.87c48.66,21.66,97.76,42.32,147,62.65Q985.74,989.07,988.61,987Z"></path><path class="cls-2" d="M1480,1082.06l-7.37,3.37c86,40.72,170.13,85.11,250.58,136.18a1513,1513,0,0,1,203.08,155q1.53-3.78,3-7.57A1531.19,1531.19,0,0,0,1725,1214.72C1646.24,1165.16,1564,1121.88,1480,1082.06Z"></path><path class="cls-2" d="M1108,922.07c-56-23.26-111.8-47-166.75-72.51l-5.76,3.63c54.51,25.24,109.74,49,165.18,72.17Z"></path><path class="cls-2" d="M1199.83,882.56c-59.74-25.1-119.94-50.51-178.52-78.81l-7.61,4c58.42,28.1,118.46,53.32,178,78.2Z"></path><path class="cls-2" d="M1559.82,1040.22q-3.12,2-6.3,3.86c65.09,31.07,129.22,64.11,191.62,100.48a1776,1776,0,0,1,211.62,145.06c.74-2.48,1.46-5,2.18-7.47a1798,1798,0,0,0-212-144.06C1686,1102.76,1623.35,1070.56,1559.82,1040.22Z"></path><path class="cls-2" d="M931,1040.09c-47.41-19.31-94.72-38.83-141.61-59.17-1.22,1.63-2.43,3.26-3.64,4.92,46.82,20.26,94,39.72,141.36,59Q929,1042.43,931,1040.09Z"></path><path class="cls-2" d="M1382.17,1240.22c-41.68-22.47-84.1-43.43-127-63.38l-7.93,3.26c42.08,19.58,83.68,40.13,124.57,62.11,150.39,80.82,285.85,198.3,395.21,328.88q14.82,17.69,28.89,35.77,3.15-4.17,6.27-8.38-11.31-14.3-23.11-28.34C1669,1439.27,1533,1321.52,1382.17,1240.22Z"></path><path class="cls-2" d="M833.05,1315.84c-58.68-28.62-118.14-55.61-177.75-82.29l-2.58,6c60.28,27,120.28,54.5,179.51,83.68C832.49,1320.77,832.76,1318.3,833.05,1315.84Z"></path><path class="cls-2" d="M895.14,1347q-8.85-4.56-17.73-9.06c-2.3,1.5-4.57,3-6.78,4.57q6.51,3.32,13,6.66c130.84,67.57,249.88,164.33,334.17,285.83,64.69,93.25,106.09,197.83,131.29,306.83q6.27-2.37,12.51-4.83c-25.84-107.8-67.53-211.14-131.76-303.44C1145.26,1512,1026.2,1414.61,895.14,1347Z"></path><path class="cls-2" d="M1085.81,1307q-33.19-17.12-66.85-33.26l-8.77,3.24q32.6,15.72,64.79,32.26c136.42,70.33,258.53,176.86,349.74,300.12,52.46,70.89,93.94,147.82,126.29,228.52q5.25-3.51,10.46-7.08c-32.38-78.6-73.44-153.56-124.85-222.77C1345,1484.58,1222.58,1377.52,1085.81,1307Z"></path><path class="cls-2" d="M855.8,1199.86c-51.58-22.29-103.4-44.07-155-66.17l-2.67,5.56c52,22.27,104.14,44.25,156,66.78Q855,1202.94,855.8,1199.86Z"></path><path class="cls-2" d="M1145.16,1292.57q-37.82-19.56-76.15-37.94-4,1.66-8.34,3.36,37.14,17.91,73.82,36.8c139.18,71.91,263.52,181,358.11,305.54,46.4,61.09,85.12,126.59,117.14,195.15q4.85-3.76,9.65-7.58c-31.75-66.28-69.76-129.62-114.91-188.85C1409.4,1474.32,1284.7,1364.75,1145.16,1292.57Z"></path><path class="cls-2" d="M866.91,1163.64c-49.75-21.36-99.65-42.37-149.41-63.65l-2.73,5.36C764.8,1126.79,815,1148,865,1169.54,865.6,1167.57,866.26,1165.61,866.91,1163.64Z"></path><path class="cls-2" d="M590.52,1407.43l-7.2-3.86-3.07,7.23c124,67.14,243.47,147.57,321.09,268.26,63.59,98.88,90.93,212.07,98.12,327.41q6.94,0,13.88-.17c-7.71-115.85-35.56-229.48-99.48-328.76C835.69,1556.13,715.5,1474.78,590.52,1407.43Z"></path><path class="cls-2" d="M624.86,1400.24q-16.35-8.76-32.8-17.35l-3,7.07q12.91,6.82,25.78,13.73c124.95,67.23,244.44,149.74,322.63,270.84,64.52,99.92,93.38,214.24,102.15,330.92q6.93-.32,13.83-.72c-9.42-117.47-39-232.45-104.29-332.9C870.38,1550.55,750.4,1467.51,624.86,1400.24Z"></path><path class="cls-2" d="M574.31,1424.74l-3.19,7.44c114.06,64.09,222.77,140.14,294.37,252.24C927,1780.78,952.9,1890.84,959,2002.94l14,1.48c-6.45-113.65-33-225.22-95.63-322.73C803.61,1567,691.52,1489.77,574.31,1424.74Z"></path><path class="cls-2" d="M565,1446.5l-3.3,7.64c103.53,60.41,201.56,132,267,234.39,60,93.9,84.71,201,89.91,310.11l14,1.48C927,1890,901.85,1781.8,841.31,1687,773.73,1581.25,672.11,1508.2,565,1446.5Z"></path><path class="cls-2" d="M555.25,1468.84q-1.72,3.95-3.46,7.86c93.43,56.86,181.58,124.43,240.49,217.13,57.93,91.16,81.47,194.89,85.87,300.52l13.92,1.48c-4.65-106.69-28.53-211.47-87-303.49C743.86,1596.05,652.26,1527,555.25,1468.84Z"></path><path class="cls-2" d="M545.09,1491.85q-1.8,4.07-3.63,8.13c83.52,53.32,162.07,116.74,214.21,199.13,56,88.41,78.43,188.76,82.13,291l13.9,1.48c-4-103.73-26.91-205.58-83.94-295.16C713.28,1610.83,631.72,1546.2,545.09,1491.85Z"></path><path class="cls-2" d="M587.21,1556.33q-26.52-19.45-53.93-38.21c-1.35,3-2.69,5.89-4,8.84q22.08,15.35,43.61,31.18c56.33,41.38,107.39,85.49,145.15,144.94,54.63,86,76.31,183.43,79.46,282.69l13.92,1.48C808,1887,786.09,1788.47,731,1701.63,693.24,1642.17,643.61,1597.69,587.21,1556.33Z"></path><path class="cls-2" d="M547,1562.69q-12.71-9.39-25.63-18.64l-4.29,9.14c5.14,3.74,10.28,7.49,15.37,11.27,54.94,40.67,111.47,85.54,148.42,143.81,52.33,82.51,73.25,175.64,76.24,270.61q7,1.66,14,3.24c-2.93-96.61-24-191.41-77.12-275.29C656.66,1648,602.46,1603.71,547,1562.69Z"></path><path class="cls-2" d="M508.66,1570.78q-2.27,4.71-4.54,9.39c50.6,38.33,102.28,81.69,139,133.23,52.47,73.62,72.23,163.72,74.64,255.17q6.48,1.85,13,3.59c-3-91.56-23.42-181.37-74.2-260.16C620.45,1656,561.73,1610.34,508.66,1570.78Z"></path><path class="cls-2" d="M495.79,1597.09q-2.48,5-5,10c39.71,33.51,76.42,69.89,107.88,109.76,53.9,68.3,75.09,152.63,78.61,239.34,4.76,1.58,9.53,3.1,14.31,4.6-2.81-89.12-23.33-176.31-77.62-245.2C579.82,1672.2,539.47,1633,495.79,1597.09Z"></path><path class="cls-2" d="M570.37,1720.22c-26.56-33.72-56.84-64.85-89.48-93.84q-2.7,5.2-5.43,10.36c28.82,26.37,55.65,54.49,79.49,84.71,21.83,27.66,44.1,58.21,55.74,91.7,11.14,32.06,18.26,65.5,22.25,99.18,1.15,9.66,2,19.33,2.67,29q7.07,2.68,14.18,5.27-1-17.55-3.15-35.09C637.92,1839.46,615.38,1777.37,570.37,1720.22Z"></path><path class="cls-2" d="M427.15,1721c-2.42,3.86-4.86,7.67-7.31,11.47.3.37.62.74.92,1.12,34.49,43.13,62.35,91.83,79.45,144.31q10.05,5.65,20.22,11.07c-15.47-57-48-111.43-83.91-156.52C433.45,1728.63,430.31,1724.82,427.15,1721Z"></path><path class="cls-2" d="M342.05,1834.66a418.88,418.88,0,0,1,26.2,65.1q7.33-2.16,14.64-4.45a423.28,423.28,0,0,0-30.43-72.24Q347.3,1829,342.05,1834.66Z"></path><path class="cls-2" d="M272.07,1897.12q3.81,11.46,7,23.06,7.59-1.26,15.17-2.68-4.11-15.07-9.35-29.88Q278.52,1892.53,272.07,1897.12Z"></path><path class="cls-2" d="M583.73,1816c-15-32.56-35.15-63.07-57.29-91.17a686.21,686.21,0,0,0-61.8-68q-3,5.4-5.94,10.75A672.63,672.63,0,0,1,510.92,1726c44.9,56.85,74.32,117,82.31,189.36.33,3,.64,6.07.92,9.11q7.17,3.1,14.39,6.09c-.45-5.34-1-10.67-1.56-16C603.25,1881.49,597.75,1846.44,583.73,1816Z"></path><path class="cls-2" d="M446.85,1688.39q-3.27,5.61-6.58,11.15,13.64,15.11,26.29,31c39.73,50.19,74.78,110.31,85,174.36q7.43,3.63,14.93,7.15c-8.52-68.67-42.67-130.3-85.39-184Q464.84,1707.53,446.85,1688.39Z"></path><path class="cls-2" d="M1730.28,1441.69c-65.54-60.82-136.17-116-210.09-166.26-68.19-46.37-144.22-82.82-219-117.54l-7.92,3.26.88.4c76.48,35.71,153.86,73.21,223.54,121.11,73.51,50.52,143.65,106,208.58,167.21,36.3,34.21,71.55,70.07,104.38,108q2.7-4,5.37-8.14C1802.85,1511.78,1767.21,1476,1730.28,1441.69Z"></path><path class="cls-2" d="M957.71,1012.11C917.35,995.5,877.08,978.69,837,961.33q-11.71-5.08-23.38-10.24c-1.43,1.59-2.85,3.2-4.27,4.85,47.39,21,95.28,41.09,143.32,60.88Q955.19,1014.44,957.71,1012.11Z"></path><path class="cls-2" d="M1024.47,963.78c-51.19-21.24-102.2-42.89-152.69-65.7-1.86,1.45-3.7,2.92-5.52,4.39,50.17,22.61,100.84,44.1,151.68,65.18C1020.1,966.34,1022.28,965.06,1024.47,963.78Z"></path><path class="cls-2" d="M1727.15,1317.17c-104.81-78.34-218.08-141.27-335.53-196.85l-7.77,3.27c119.43,56.54,234.37,120.73,340.59,201.08,57.33,43.36,111.38,89.31,161.32,140,1.34-2.58,2.68-5.17,4-7.76C1839.36,1406.29,1785,1360.4,1727.15,1317.17Z"></path><path class="cls-2" d="M1206.56,1279.79q-44.94-23.44-90.69-45.13l-8.06,3.43q44.45,21.2,88.2,43.89c141.44,73.67,267.87,185.44,365.49,311.09a1117.21,1117.21,0,0,1,102.07,157.51q4.4-3.94,8.76-7.93a1119.14,1119.14,0,0,0-98.94-150.8C1475.23,1466,1348.4,1353.8,1206.56,1279.79Z"></path><path class="cls-2" d="M879,1130.16c-48.41-20.34-96.89-40.48-145.18-61l-2.88,5.31c48.53,20.66,97.25,40.93,145.88,61.42C877.53,1134,878.25,1132.06,879,1130.16Z"></path><path class="cls-2" d="M1426,1315.55c-67.68-47.83-142-84.63-217-119.62h-.09l-8,3.32c2.25,1,4.5,2.09,6.74,3.15,74.81,35.15,148.17,72.39,215.51,120.54,69.64,49.78,135.45,105,195.43,166.11a1304.44,1304.44,0,0,1,138.24,166.41q3.57-4.15,7.1-8.36A1321.26,1321.26,0,0,0,1623,1480.67C1562.4,1419.92,1496.05,1365.07,1426,1315.55Z"></path><path class="cls-2" d="M910.66,1067.47c-46.95-19.51-93.83-39.11-140.38-59.32q-1.71,2.58-3.4,5.19c46.6,20.18,93.51,39.77,140.48,59.29Q909,1070,910.66,1067.47Z"></path><path class="cls-2" d="M893.08,1098.07c-47.35-19.73-94.69-39.42-141.78-59.62l-3.1,5.26c47.25,20.23,94.74,40,142.21,59.79Q891.73,1100.76,893.08,1098.07Z"></path><path class="cls-2" d="M1408.54,1358.75c-65.27-49.55-134-89.26-207.57-125.11q-19.26-9.37-38.64-18.48l-8,3.35q22.58,10.65,45,21.63a1260.51,1260.51,0,0,1,391.1,298.21A1168.18,1168.18,0,0,1,1712.26,1704q4-4.07,7.89-8.17a1178.43,1178.43,0,0,0-124.58-166.06C1539,1466.85,1475.94,1409.91,1408.54,1358.75Z"></path><path class="cls-2" d="M658.9,1393.09q-29-15.51-58.31-30.45l-2.91,6.92q25.92,13.35,51.63,27.11C775,1464,894.31,1548.26,973.12,1669.5c65.41,100.63,96,215.67,106.55,333.35q6.88-.58,13.76-1.26c-11.27-118.29-42.6-233.82-108.7-334.81C905.16,1545.2,785.26,1460.61,658.9,1393.09Z"></path><path class="cls-2" d="M828.82,1368.35q.2-4.06.42-8.13c-62.16-32.28-125.43-62.27-189-91.57q-1.32,3.09-2.63,6.18c60.9,28.22,121.48,57.12,181,88.12Q823.74,1365.62,828.82,1368.35Z"></path><path class="cls-2" d="M841.85,1366.87q-2.67,2.84-5.1,5.76c122,66.38,233.39,156.55,311.84,272,66.24,97.48,105.16,207.68,126.21,321.95q6.53-1.9,13-3.88c-21.78-113.43-61.15-222.71-127.1-319.53C1080.63,1525.62,966.64,1433.63,841.85,1366.87Z"></path><path class="cls-2" d="M838.94,1274.78c-55.82-25.92-112.21-50.68-168.61-75.38l-2.58,5.81c56.9,25,113.77,50.12,170,76.45C838.16,1279.36,838.55,1277.07,838.94,1274.78Z"></path><path class="cls-2" d="M961,1334.24q-20.12-10.37-40.38-20.39-4,1.92-7.87,3.9,18.56,9.21,37,18.7c132.24,68.14,251.63,168.5,337.66,290.21,61.58,87.11,104.23,183.82,132.86,285q6-2.81,11.91-5.69c-29.13-99.64-71.87-194.83-132.79-280.72C1213,1503.47,1093.49,1402.52,961,1334.24Z"></path><path class="cls-2" d="M1022.6,1319.91q-26.88-13.82-54.06-27c-2.83,1.14-5.66,2.29-8.51,3.46q25.89,12.63,51.55,25.79c134.55,69.14,255.35,172.5,344.13,295.07,57.82,79.85,100.76,167.58,132,259.59q5.64-3.19,11.23-6.45c-31.54-90.17-74.33-176.12-131.32-254.52C1278.45,1493.16,1157.46,1389.23,1022.6,1319.91Z"></path><path class="cls-2" d="M846.6,1236.33c-53.51-23.86-107.4-46.92-161.19-70.13q-1.32,2.82-2.62,5.67c54.21,23.44,108.49,46.76,162.37,70.93Q845.87,1239.56,846.6,1236.33Z"></path><path class="cls-2" d="M763.87,1374.35c-45.88-24.08-92.35-47-139.09-69.29l-2.7,6.43c43.55,20.94,86.84,42.4,129.63,64.9,127.61,67.11,246.3,156.83,327.06,277.93,66.75,100.1,102.56,214,119.28,331.34q6.71-1.38,13.38-2.86c-17.45-116.93-53.78-230.22-120.43-329.94C1010.12,1531.84,891.61,1441.42,763.87,1374.35Z"></path><path class="cls-2" d="M695.23,1387.4q-42.9-22.8-86.4-44.4l-2.82,6.72q38.57,19.4,76.69,39.63c126.5,67.37,245.83,153.25,325.51,274.61,66.32,101,98.72,216.39,111.25,334.72q6.84-.86,13.66-1.79c-13.22-118.25-46.17-233.46-112.54-334.38C940.86,1541.28,821.8,1454.68,695.23,1387.4Z"></path><path class="cls-2" d="M397,1766.38a451.93,451.93,0,0,1,54.27,103.83q6.93-2.93,13.81-6c-14.65-39.08-35.14-75.83-59.87-109.62Q401.09,1760.55,397,1766.38Z"></path><path class="cls-2" d="M371.12,1800.73a434.59,434.59,0,0,1,39.22,85.39q7.14-2.55,14.25-5.25a439.91,439.91,0,0,0-44.21-92Q375.79,1794.89,371.12,1800.73Z"></path><path class="cls-2" d="M309.53,1866.93a405.09,405.09,0,0,1,15.6,44.11q7.51-1.74,15-3.62a409.41,409.41,0,0,0-19-51.34Q315.39,1861.65,309.53,1866.93Z"></path><path class="cls-2" d="M232.8,1921.33c.47,1.66.94,3.32,1.39,5q7.81-.84,15.62-1.83-1.49-5.48-3.1-10.9Q239.83,1917.64,232.8,1921.33Z"></path></g></g></g></g></svg>