<svg xmlns="http://www.w3.org/2000/svg" xmlns:xlink="http://www.w3.org/1999/xlink" id="Layer_1" x="0px" y="0px" viewBox="0 0 538 97.7" style="enable-background:new 0 0 538 97.7;" xml:space="preserve"> <style type="text/css"> .st0{fill:#22BA02;} .st1{fill:#65A0EF;} .st2{fill:#E0E0E0;} </style> <g id="Layer_2_00000101808285460018778020000002161563770897357726_"> <g id="Layer_1-2"> <g id="Layer_2-2"> <g id="Layer_1-2-2"> <g id="Layer_2-2-2"> <g id="Layer_1-2-2-2"> <path class="st0" d="M98.1,61.3v-3l3.3-0.3l0.9-1V34.4h-4.2V32l4.2-1.9c-0.1-2.8,0.5-5.7,1.6-8.3c1.1-2.4,2.9-4.5,5-6 c1.2-0.8,2.4-1.5,3.8-2c1.3-0.5,2.7-0.7,4.1-0.7c1.6-0.1,3.2,0.4,4.5,1.3c1.1,0.8,1.7,2.1,1.6,3.5c0,0.9-0.4,1.7-1,2.4 c-0.8,0.8-1.8,1.3-2.8,1.6l-6.3-5.6c-0.9,1-1.6,2.3-1.9,3.7c-0.5,2-0.7,4-0.6,6.1v4.4h8.9v3.9h-8.9v22.7l1.1,1l4.4,0.3v3 L98.1,61.3z"></path> <path class="st0" d="M130.1,29.1h3.1v28.1l1,1l3.6,0.3v2.9h-17.1v-2.9l3.5-0.3l0.9-1V34.8H121v-2.6L130.1,29.1z M129.4,14.3 c1.3,0,2.6,0.4,3.5,1.4c0.9,0.9,1.4,2.1,1.4,3.4c0,1.3-0.4,2.6-1.4,3.5c-1.8,1.9-4.9,1.9-6.7,0.1c-0.9-0.9-1.5-2.2-1.4-3.5 c0-1.3,0.4-2.6,1.3-3.5C126.9,14.7,128.1,14.2,129.4,14.3z"></path> <path class="st0" d="M148.9,13.3h3.1v18.5c1.6-0.9,3.2-1.6,4.9-2.2c1.4-0.5,2.9-0.7,4.4-0.7c3.5-0.1,6.9,1.4,9.2,4.1 c2.5,3,3.8,6.8,3.6,10.6c0.1,3.4-0.8,6.8-2.6,9.8c-1.9,2.8-4.5,5-7.6,6.4c-1.5,0.6-3,1-4.5,1.2c-2.2,0.3-4.4,0.4-6.6,0.4h-1.7 l-7.2-0.2V18.9h-4.7v-2.5L148.9,13.3z M152.1,57.8c0.2,0,0.5,0,0.8,0h1.3c3.9,0,6.8-1,8.7-3s2.8-5.1,2.8-9.5 c0-3.7-0.8-6.5-2.5-8.4c-1.8-2-4.3-3.1-7-2.9c-0.6,0-1.2,0.1-1.8,0.1c-0.7,0.1-1.4,0.2-2.3,0.4V57.8z"></path> <path class="st0" d="M208.3,53.3v4.8c-2.1,1.2-4.4,2.2-6.7,2.9c-2.2,0.6-4.5,1-6.8,1c-4.9,0-8.8-1.5-11.7-4.5 s-4.4-6.9-4.4-11.8c-0.2-4.5,1.4-8.8,4.5-12.1c3-3.1,7.2-4.8,11.6-4.7c4.3,0,7.6,1.3,10,3.9s3.6,6.2,3.6,10.8v1.2H187V45 c0,3.7,0.9,6.6,2.8,8.7c2,2.2,4.8,3.3,7.7,3.2c1.8,0,3.6-0.3,5.2-0.9C204.7,55.3,206.6,54.4,208.3,53.3z M199.7,41.3v-0.7 c0.1-2.1-0.4-4.2-1.5-6.1c-0.9-1.4-2.5-2.2-4.2-2.1c-1.9-0.1-3.7,0.8-4.8,2.4c-1.3,1.9-2,4.2-2,6.6L199.7,41.3z"></path> <path class="st0" d="M212.2,61.3v-2.9l3.5-0.3l0.9-1V34.8h-4.7v-2.6l9.6-3h3.1l-0.3,6.6c1.1-1.2,2.3-2.3,3.6-3.5 s2.6-2.2,4-3.2c0.3-0.1,0.6-0.1,0.9-0.1h0.6c0.7,0,1.4,0.1,2.1,0.3c0.8,0.2,1.5,0.5,2.2,0.8l-0.8,9h-3.4 c-0.4-0.7-1-1.3-1.8-1.8c-0.8-0.4-1.6-0.6-2.5-0.6c-0.7,0-1.4,0.2-2,0.5c-0.9,0.4-1.8,0.8-2.6,1.3v18.6l1,1l4.6,0.3v2.9H212.2 z"></path> <path class="st1" d="M266.9,54.5v3.6c-1.9,1.2-3.9,2.2-6,2.9c-2,0.7-4.1,1-6.3,1c-4,0.1-7.8-1.5-10.5-4.4s-4-6.8-4-11.5 c0-4.9,1.4-8.9,4.2-11.9c2.8-3.1,6.7-4.8,10.8-4.6c3.2-0.2,6.4,1.1,8.6,3.5c2.1,2.3,3.2,5.4,3.2,9.4v1.2c0,0.3,0,0.5-0.1,0.8 h-21.1V45c0,4.1,1,7.3,2.9,9.7c2,2.4,4.9,3.7,8,3.6c1.6,0,3.3-0.3,4.8-0.9C263.4,56.6,265.2,55.6,266.9,54.5z M261.1,41.5v-1 c0.1-2.1-0.5-4.3-1.7-6c-1.3-1.4-3.1-2.2-5-2.1c-2.2,0-4.2,0.9-5.6,2.6c-1.6,1.8-2.6,4.1-2.7,6.5H261.1z"></path> <path class="st1" d="M271.5,61.3V59l3.8-0.3l1.1-1V17.9h-5v-2l7.9-2.3h2.5v44.1l1.2,1l3.7,0.3v2.3 C286.7,61.3,271.5,61.3,271.5,61.3z"></path> <path class="st1" d="M317.2,54.5v3.6c-1.9,1.2-3.9,2.2-6,2.9c-2,0.7-4.1,1-6.3,1c-4,0.1-7.8-1.5-10.5-4.4s-4-6.8-4-11.5 c0-4.9,1.4-8.9,4.2-11.9c2.8-3.1,6.7-4.8,10.8-4.6c3.2-0.1,6.3,1.1,8.5,3.4c2.1,2.3,3.2,5.4,3.2,9.4v1.2c0,0.3,0,0.5-0.1,0.8 h-21V45c0,4.1,1,7.3,3,9.7s4.9,3.7,8,3.6c1.6,0,3.3-0.3,4.8-0.9C313.7,56.6,315.5,55.6,317.2,54.5z M311.4,41.5v-1 c0.1-2.1-0.5-4.3-1.7-6c-1.3-1.4-3.1-2.2-5-2.1c-2.2,0-4.2,0.9-5.6,2.6c-1.6,1.8-2.5,4.1-2.6,6.6L311.4,41.5z"></path> <path class="st1" d="M347.6,58.6c-1.7,1-3.5,1.8-5.4,2.4c-1.7,0.5-3.4,0.8-5.2,0.8c-4,0.2-7.9-1.5-10.6-4.4 c-2.7-3-4-6.9-4-11.7c-0.2-4.3,1.4-8.5,4.2-11.7c2.9-3,7-4.7,11.1-4.6c2.5-0.1,5,0.5,7.1,1.7c1.6,1,2.6,2.7,2.6,4.6 c0,0.9-0.3,1.8-1,2.5s-1.7,1-2.6,0.9c-0.5,0-1-0.1-1.5-0.3s-1-0.4-1.5-0.7V33c-0.5-0.3-1-0.5-1.6-0.7 c-0.5-0.2-1.1-0.2-1.6-0.2c-2.8,0-5.4,1.3-6.9,3.6c-1.7,2.4-2.6,5.6-2.6,9.6s1,7.1,3,9.4c2,2.3,5,3.5,8.1,3.4 c1.4,0,2.8-0.2,4.2-0.7c1.4-0.5,2.8-1.2,4.1-2.1L347.6,58.6L347.6,58.6z"></path> <path class="st1" d="M354.7,34h-4.1v-2l4.3-1.9l2.8-6.1h2.5v6.9h9.9V34h-9.9v17.1c0,2.8,0.4,4.7,1.2,5.7 c0.8,1,2.2,1.4,4.2,1.5c0.7,0,1.5,0,2.2-0.1c0.8-0.1,1.6-0.2,2.3-0.4v2.4c-1.4,0.5-2.9,0.8-4.4,1.1c-1.4,0.2-2.8,0.4-4.2,0.4 c-2.5,0-4.2-0.5-5.3-1.4s-1.5-2.7-1.5-5.2V34z"></path> <path class="st1" d="M372.6,61.3V59l3.5-0.3l1.1-1V34.1h-4.6v-2l7.6-2.3h2.5v6.1c1.1-1.1,2.2-2.1,3.3-3.2s2.4-2.1,3.6-3.1 c0.2-0.1,0.4-0.1,0.6-0.1h1c0.6,0,1.3,0.1,1.9,0.2c0.7,0.2,1.4,0.4,2,0.7V36H393c-0.8-1-2-1.6-3.3-1.5 c-1.2,0.1-2.3,0.5-3.3,1.2c-1.4,1-2.7,2.2-3.8,3.6v18.5l1.1,1l4.5,0.3v2.3L372.6,61.3L372.6,61.3z"></path> <path class="st1" d="M413,29.4c4.1-0.1,8.1,1.6,10.9,4.6c2.9,3.2,4.4,7.4,4.2,11.7c0.2,4.3-1.4,8.5-4.3,11.7 c-5.9,6-15.6,6.1-21.6,0.2l0,0l-0.2-0.2c-2.9-3.2-4.4-7.4-4.2-11.7c-0.2-4.3,1.3-8.5,4.2-11.7C404.9,30.9,408.9,29.3,413,29.4 z M413,32.2c-2.7,0-5.2,1.4-6.5,3.7c-1.6,2.5-2.5,5.7-2.5,9.8s0.8,7.4,2.5,9.8c2.2,3.6,7,4.7,10.6,2.5c1-0.6,1.9-1.5,2.5-2.5 c1.6-2.4,2.4-5.7,2.4-9.8s-0.8-7.4-2.5-9.8C418.2,33.6,415.7,32.2,413,32.2L413,32.2z"></path> <path class="st1" d="M432.5,61.3V59l3.5-0.3l1.1-1V34.1h-4.6v-2l7.6-2.3h2.5v3.5c2-1.1,4.1-2.2,6.3-3c1.3-0.6,2.7-0.9,4.2-0.9 c2.8,0,5,0.8,6.5,2.5c1.5,1.7,2.2,4.2,2.2,7.4v18.3l1.1,1l3.5,0.3v2.3h-14.2V59l3.1-0.3l1.1-1V40.5c0-2.5-0.5-4.2-1.5-5.2 s-2.7-1.5-5.1-1.5c-1.1,0-2.3,0.2-3.4,0.5c-1.4,0.4-2.7,0.9-3.9,1.6v21.8l1.1,1l3.1,0.3v2.3C446.7,61.3,432.5,61.3,432.5,61.3 z"></path> <path class="st1" d="M477.2,29.8h2.5v27.9l1.1,1l3.5,0.3v2.3h-14.6V59l3.4-0.3l1.1-1V34.1h-4.5v-2L477.2,29.8z"></path> <path class="st1" d="M513.3,58.6c-1.7,1-3.5,1.8-5.3,2.4c-1.7,0.5-3.4,0.8-5.2,0.8c-4,0.2-7.9-1.5-10.6-4.4 c-2.7-3-4-6.9-4-11.7c-0.2-4.3,1.3-8.5,4.2-11.7c2.9-3,7-4.7,11.1-4.6c2.5-0.1,5,0.5,7.1,1.7c1.6,1,2.6,2.7,2.6,4.6 c0,0.9-0.3,1.8-1,2.5s-1.7,1-2.6,0.9c-0.5,0-1-0.1-1.5-0.3s-1-0.4-1.5-0.7V33c-0.5-0.3-1-0.5-1.5-0.7s-1.1-0.2-1.6-0.2 c-2.8-0.1-5.4,1.3-6.9,3.6c-1.8,2.4-2.6,5.6-2.6,9.6s1,7.1,3,9.4c2,2.3,5,3.6,8.1,3.4c1.4,0,2.8-0.2,4.2-0.7 c1.4-0.5,2.8-1.2,4.1-2.1L513.3,58.6z"></path> <path class="st1" d="M537.1,30.9v7.4h-3.2l-0.5-4.6c-0.8-0.4-1.6-0.7-2.5-1c-0.8-0.2-1.6-0.3-2.3-0.3c-1.4-0.1-2.9,0.4-4,1.3 c-1,0.9-1.5,2.2-1.4,3.5c0,1.1,0.4,2.3,1.1,3.1c1.3,1.2,2.8,2.1,4.4,2.8c0.3,0.2,0.8,0.4,1.6,0.7c1.9,0.8,3.7,1.8,5.3,3 c0.8,0.6,1.4,1.4,1.8,2.4c0.4,1,0.7,2.1,0.6,3.2c0.1,2.8-1.1,5.4-3.2,7.2c-2.1,1.7-5.1,2.6-8.9,2.6c-1.5,0-3-0.1-4.5-0.3 c-1.4-0.2-2.7-0.5-4-1v-8.5h3.1l0.8,5.5c0.9,0.5,1.8,0.9,2.7,1.2s1.8,0.4,2.8,0.4c1.6,0.1,3.2-0.4,4.4-1.5 c1.1-0.9,1.8-2.3,1.7-3.8c0.1-1.2-0.4-2.4-1.1-3.3c-1.6-1.4-3.5-2.5-5.5-3.3c-3.3-1.5-5.5-2.8-6.7-4.1s-1.8-3-1.8-4.8 c-0.1-2.6,1-5.1,3-6.7c2-1.6,4.8-2.4,8.5-2.4c1.4,0,2.7,0.1,4.1,0.4C534.8,30,536,30.4,537.1,30.9z"></path> <path class="st1" d="M479.3,19.1c0,2-1.6,3.6-3.6,3.6s-3.6-1.6-3.6-3.6c0-1.9,1.5-3.5,3.4-3.6h0.3c1.9,0,3.4,1.5,3.4,3.4l0,0 L479.3,19.1z"></path> </g> </g> </g> </g> <g id="Layer_2-3"> <g id="Layer_1-2-3"> <g id="Layer_2-2-3"> <g id="Layer_1-2-2-3"> <path class="st1" d="M11.1,51.3c3.6-10.5,4.3-25.3,15.6-30.8c10.3-5,24.2-6.4,35.4-11.4C46.4-4.4,22.7-2.7,9.1,13 C-2.5,26.4-3.1,46.1,7.7,60.2C9,57.3,10.1,54.2,11.1,51.3z"></path> <path class="st0" d="M69.3,17.5c1.4-2.5,2.3-5.2,2.8-8c-6.8,13.2-30.3,15.9-40.4,25.1c-7.7,7-11.6,32-23,37.3 c3.2-0.3,6.4-1.1,9.3-2.4c3.5,2.1,7.4,3.7,11.4,4.6l8,0.8C58.2,75,75,58.2,75,37.5C75,30.4,73,23.5,69.3,17.5L69.3,17.5z M63.6,33.3c-2.1,4.2-4.6,5.7-8.7,7.5c-4.8,2.1-9.6,4-14.4,6c-2.5,1-7.6,2.4-9.2,4.9c0.1-3.4,0.7-6.7,2-9.8 c1.8-4.4,5.2-6,9.3-7.8c4.8-2.1,9.8-4,14.5-6.2c3.5-1.6,8.6-3.6,10.6-7C66.9,25.2,65.5,29.4,63.6,33.3z"></path> </g> </g> </g> </g> <path class="st2" d="M109.8,85.8c-1.2-0.8-2.5-1.2-3.9-1.2c-2.9,0-4.8,2-4.8,5.3s1.9,5.4,4.9,5.4c1.5,0,2.9-0.5,4.1-1.3l0.6,2.7 c-1.5,0.8-3.1,1.2-4.8,1.2c-4.6,0-7.7-2.9-7.7-7.8s3.1-7.9,7.8-7.9c1.7,0,3.3,0.4,4.8,1.2L109.8,85.8z"></path> <path class="st2" d="M126.3,97.7c-4.4,0-7.7-2.9-7.7-7.8c-0.2-4.1,3-7.7,7.2-7.9c0.2,0,0.4,0,0.5,0c4.4,0,7.6,2.9,7.6,7.8 c0.2,4.1-3,7.7-7.1,7.9C126.6,97.7,126.4,97.7,126.3,97.7z M126.3,84.5c-2.8,0-4.7,2.2-4.7,5.3s1.9,5.4,4.8,5.4 c2.9,0,4.7-2.2,4.7-5.4S129.1,84.5,126.3,84.5L126.3,84.5z"></path> <path class="st2" d="M153.5,82.4h2.8v15.1h-3.1l-7.1-11v10.9h-2.8v-15h3.2l7.1,10.9L153.5,82.4L153.5,82.4z"></path> <path class="st2" d="M176.5,82.4h2.8v15.1h-3.1l-7.1-11v10.9h-2.8v-15h3.2l7.1,10.9L176.5,82.4L176.5,82.4z"></path> <path class="st2" d="M189.3,97.4v-15h10.2v2.5h-7.3v3.8h6v2.5h-6V95h7.3v2.5h-10.2V97.4z"></path> <path class="st2" d="M219.5,85.8c-1.2-0.8-2.5-1.2-3.9-1.2c-2.9,0-4.9,2-4.9,5.3s1.9,5.4,4.9,5.4c1.5,0,2.9-0.5,4.1-1.3l0.6,2.7 c-1.5,0.8-3.1,1.2-4.8,1.2c-4.6,0-7.7-2.9-7.7-7.8s3.1-7.9,7.8-7.9c1.7,0,3.3,0.4,4.8,1.2L219.5,85.8z"></path> <path class="st2" d="M236.5,85v12.4h-2.9V85h-5v-2.6h12.9V85H236.5z"></path> <path class="st2" d="M250.1,97.4v-15h2.9v14.9L250.1,97.4L250.1,97.4z"></path> <path class="st2" d="M270.2,97.4h-3.5l-5.3-14.9h3l4.1,12l4.1-12h3L270.2,97.4z"></path> <path class="st2" d="M283.9,97.4v-15h2.9v14.9L283.9,97.4L283.9,97.4z"></path> <path class="st2" d="M303.3,85v12.4h-2.9V85h-5v-2.6h12.9V85H303.3z"></path> <path class="st2" d="M324.3,91.6v5.8h-2.9v-5.8l-5.2-9.1h3.1l3.5,6.4l3.5-6.4h3.1L324.3,91.6z"></path> <path class="st2" d="M362.7,97.4h-2.9l-1.2-3.5h-6l-1.2,3.5h-2.9l5.4-14.9h3.5L362.7,97.4z M355.6,84.9l-2.3,6.5h4.5L355.6,84.9z"></path> <path class="st2" d="M376.2,85v12.4h-2.9V85h-5v-2.6h12.9V85H376.2z"></path> <path class="st2" d="M402,97.4v-15h2.9v14.9L402,97.4L402,97.4z"></path> <path class="st2" d="M421.4,85v12.4h-2.9V85h-5v-2.6h12.9V85H421.4z"></path> <path class="st2" d="M442.5,93.3c0-1.2-1.1-1.7-3.3-2.3s-4.6-1.6-4.6-4.5c0-2.7,2-4.4,5.4-4.4c1.8,0,3.6,0.4,5.1,1.3l-0.7,2.5 c-1.3-0.8-2.8-1.2-4.4-1.3c-1.8,0-2.5,0.7-2.5,1.8c0,1.2,1.3,1.7,3.4,2.2c2.2,0.6,4.6,1.7,4.6,4.5s-2.2,4.7-5.7,4.7 c-1.9,0-3.7-0.5-5.4-1.4l0.7-2.5c1.4,0.9,3.1,1.4,4.8,1.4C441.4,95.2,442.5,94.5,442.5,93.3z"></path> <path class="st2" d="M478.2,93.1c0,2.5-1.5,4.3-5.8,4.3h-5.8v-15h5.7c4,0,5.4,1.7,5.4,3.9c0,1.6-1,2.7-2.7,3.2 C477,90,478.2,91.3,478.2,93.1z M472.2,84.8h-2.7v4.1h2.5c1.9,0,2.8-0.8,2.8-2.1S473.9,84.8,472.2,84.8L472.2,84.8z M472.2,91 h-2.7v4h2.9c2,0,2.9-0.7,2.9-2.1S474,91,472.2,91z"></path> <path class="st2" d="M487.5,97.4v-15h10.2v2.5h-7.3v3.8h6v2.5h-6V95h7.3v2.5h-10.2V97.4z"></path> <path class="st2" d="M514.3,93.3c0-1.2-1.1-1.7-3.3-2.3s-4.6-1.6-4.6-4.5c0-2.7,2-4.4,5.4-4.4c1.8,0,3.6,0.4,5.1,1.3l-0.7,2.5 c-1.3-0.8-2.8-1.2-4.4-1.3c-1.7,0-2.5,0.7-2.5,1.8c0,1.2,1.3,1.7,3.4,2.2c2.2,0.6,4.6,1.7,4.6,4.5s-2.2,4.7-5.7,4.7 c-1.9,0-3.7-0.5-5.4-1.4l0.7-2.5c1.4,0.9,3.1,1.4,4.8,1.4C513.1,95.2,514.3,94.5,514.3,93.3z"></path> <path class="st2" d="M533,85v12.4h-2.9V85h-5v-2.6H538V85H533z"></path> </g> </g> </svg>