<svg xmlns="http://www.w3.org/2000/svg" viewBox="0 0 540 189.05"><defs><style>.h{fill:#fff;}</style></defs><g id="a"></g><g id="b"><g id="c"><g id="d"><g id="e"><g id="f"><g id="g"><g><path class="h" d="M3,89.16c4.74,3.5,10.09,6.08,15.78,7.6,4.87,1.32,9.89,2.02,14.94,2.09l3.34-.17c3.24-.14,6.33-1.38,8.77-3.51,2.26-1.84,3.58-4.6,3.59-7.51,.17-3.03-.99-5.98-3.17-8.1-2.7-2.28-5.82-4.01-9.18-5.1-9.47-3.13-18.28-8-25.97-14.36C4.81,54.55,1.35,46.46,1.67,38.07c-.07-6.27,1.39-12.46,4.26-18.03,2.73-5.34,6.86-9.84,11.94-13.02C23.14,3.74,29.19,1.9,35.4,1.67l4.01-.16c8.8,.28,17.49,2.03,25.72,5.18l-3.01,23.04c-7.67-3.41-15.99-5.12-24.38-5.01-3.31,.02-6.47,1.37-8.76,3.76-2.07,2.31-3.18,5.33-3.09,8.43-.16,3.1,1.14,6.09,3.5,8.1,2.95,2.27,6.29,4,9.85,5.09,9.29,3.14,17.86,8.11,25.21,14.61,6.14,5.63,9.55,13.63,9.35,21.96,.11,6.58-1.56,13.08-4.85,18.78-3.26,5.54-8.04,10.03-13.77,12.93-6.44,3.23-13.58,4.84-20.79,4.68-5.4-.09-10.78-.76-16.03-2-6.39-1.48-12.56-3.78-18.36-6.85l3-25.05Z"></path><path class="h" d="M93.84,121.89V2.51h59.78V26.38h-35.9v23.88h31.4v23.88h-31.4v23.88h37.91v23.87h-61.79Z"></path><path class="h" d="M201.86,121.89h-23.88V0h6.34l60.28,70.13V2.67h24.05V124.39h-6.35l-60.44-67.46V121.89h0Z"></path><path class="h" d="M295.54,2.51h23.87V50.09L349.47,2.51h27.88l-38.74,58.93,42.08,60.45h-29.56l-31.73-46.75v46.75h-23.87V2.51h.01Z"></path><path class="h" d="M413.5,114.88c-9-5.46-16.27-13.37-20.95-22.8-9.36-18.94-9.36-41.16,0-60.11,4.69-9.42,11.95-17.33,20.95-22.79,9.29-5.79,20.51-8.68,33.65-8.68s24.35,2.89,33.65,8.68c8.99,5.47,16.26,13.37,20.95,22.79,9.36,18.94,9.36,41.16,0,60.11-4.69,9.43-11.95,17.33-20.95,22.8-9.3,5.79-20.51,8.68-33.65,8.68s-24.35-2.89-33.65-8.68Zm53.18-21.29c5.29-3.33,9.54-8.07,12.28-13.69,2.72-5.59,4.11-11.73,4.08-17.95,.02-6.24-1.37-12.41-4.08-18.04-2.7-5.64-6.96-10.39-12.28-13.69-5.88-3.57-12.66-5.37-19.53-5.18-6.85-.2-13.61,1.6-19.46,5.18-5.26,3.3-9.48,8.02-12.19,13.61-5.46,11.4-5.46,24.66,0,36.06,2.71,5.61,6.93,10.35,12.19,13.69,5.83,3.63,12.6,5.46,19.46,5.27,6.88,.18,13.67-1.65,19.53-5.27h0Z"></path><path class="h" d="M524.5,2.61c8.57,0,15.51,6.96,15.5,15.53,0,8.57-6.96,15.51-15.53,15.5-8.57,0-15.51-6.96-15.5-15.53,0-8.55,6.94-15.49,15.5-15.5h.03Zm-.12,3.1c-6.72,.06-12.12,5.55-12.07,12.27v.07c-.16,6.66,5.11,12.18,11.76,12.34s12.18-5.1,12.34-11.76v-.58c.1-6.72-5.27-12.25-11.99-12.35h-.04Zm.65,3.63c3.3,0,6.26,1.36,6.26,4.83,.07,1.83-1.04,3.5-2.76,4.14,1.25,.52,2.29,1.37,2.45,3.98-.05,1.41,.12,2.83,.52,4.18h-4.14c-.31-1.35-.5-2.72-.57-4.1-.12-.96-.36-2.49-3.06-2.49h-1.69v6.59h-4.27V9.32h7.26Zm-2.98,2.95v4.82h2.05c.88,0,2.94,0,2.94-2.61,0-2.17-1.81-2.21-2.7-2.21h-2.29Z"></path><path class="h" d="M22.66,170.85H9.31l-3.4,8.6H1.47l14.09-33.98h.55l14.49,33.98h-4.45l-3.5-8.6h0Zm-1.4-3.35l-5.4-13.14-5.2,13.14h10.6Z"></path><path class="h" d="M56.64,142.36v37.08h-4v-4.5c-1.65,3.31-5.1,5.34-8.8,5.15-6.35,0-10.7-4.25-10.7-11.94s4.6-12.1,11.05-12.1c3.51-.24,6.83,1.65,8.4,4.8v-18.49h4.05Zm-4.3,25.73c0-5.4-3.15-8.25-7.4-8.25s-7.5,2.95-7.55,8.25c-.1,5.3,3.1,8.15,7.45,8.15,3.91,.24,7.28-2.75,7.51-6.66,.02-.35,.02-.69,0-1.04v-.45h0Z"></path><path class="h" d="M83.77,156.76l-11.6,22.99h-.5l-10.9-22.94h4.75l6.55,14.65,7.1-14.69h4.6Z"></path><path class="h" d="M108.61,156.7v22.74h-4.05v-3.9c-1.9,2.85-5.13,4.51-8.55,4.4-6.5,0-10.89-4.3-10.89-11.79s4.65-11.95,11.09-11.95c3.59-.24,6.97,1.69,8.6,4.9v-4.4h3.8Zm-4.4,11.39c0-5.34-3.1-8.04-7.35-8.04s-7.4,2.9-7.45,8.04c-.1,5.2,3.05,8,7.45,8,3.84,.22,7.14-2.71,7.36-6.55,.02-.33,.01-.66-.01-.99v-.45h0Z"></path><path class="h" d="M136.69,166.25v13.19h-4.05l-.1-12.65c-.05-5.79-2.2-7-5.25-7-3.2,0-6.25,1.9-6.35,7.1l-.1,12.55h-4.05v-22.74h3.65v4.25c1.39-3.16,4.61-5.1,8.05-4.85,4.85,0,8.2,2,8.2,10.15h0Z"></path><path class="h" d="M141.98,168.15c-.46-6.21,4.19-11.61,10.39-12.08,.42-.03,.83-.04,1.25-.02,3.8-.22,7.44,1.56,9.59,4.7l-2.45,2.9c-2.25-3.69-7.07-4.85-10.76-2.6-2.44,1.49-3.87,4.19-3.74,7.05-.39,4.09,2.6,7.73,6.7,8.12,.33,.03,.67,.04,1,.03,2.82,.09,5.48-1.31,7-3.7l2.6,2.85c-2.39,3.13-6.16,4.88-10.1,4.7-6.25,0-11.49-3.95-11.49-11.94h.01Z"></path><path class="h" d="M188.5,169.55l-17.84,.1c.25,3.94,3.6,6.96,7.55,6.8,3.23,.2,6.36-1.18,8.39-3.7l1.65,3.15c-2.74,2.89-6.62,4.42-10.59,4.2-6.05,0-11.4-3.65-11.4-11.9-.46-6.24,4.23-11.67,10.48-12.13,.44-.03,.88-.04,1.32-.02,6.15,0,10.79,3.45,10.45,13.5h-.01Zm-17.89-2.69l13.85-.05c-.3-5.05-2.9-6.95-6.55-6.95-3.93-.04-7.18,3.07-7.3,7Z"></path><path class="h" d="M215.13,142.36v37.08h-4v-4.5c-1.64,3.31-5.1,5.34-8.79,5.15-6.35,0-10.7-4.25-10.7-11.94s4.6-12.1,11.05-12.1c3.51-.24,6.83,1.65,8.4,4.8v-18.49h4.04Zm-4.3,25.73c0-5.4-3.15-8.25-7.4-8.25s-7.5,2.95-7.55,8.25c-.1,5.3,3.1,8.15,7.45,8.15,3.91,.23,7.27-2.75,7.51-6.66,.02-.35,.02-.69,0-1.04v-.45h0Z"></path><path class="h" d="M230.97,162.5c-.4-9.17,6.7-16.93,15.87-17.34,.44-.02,.88-.02,1.32,0,5.29-.24,10.4,1.93,13.9,5.9l-2.45,3.7c-2.67-3.56-6.9-5.61-11.35-5.49-6.99-.14-12.77,5.4-12.91,12.39v.91c.1,8.54,5.8,13.34,12.9,13.34,4.22,.13,8.27-1.67,11-4.9l2.45,3.5c-3.58,3.7-8.55,5.73-13.7,5.6-10.14,0-17.04-6.8-17.04-17.59v-.02h.01Z"></path><path class="h" d="M265.2,168.15c-.07-6.61,5.23-12.03,11.84-12.1s12.03,5.23,12.1,11.84v.26c-.01,6.61-5.38,11.96-11.99,11.95-6.59,0-11.93-5.35-11.95-11.95h0Zm19.69-.05c.24-4.25-3.01-7.89-7.26-8.13s-7.89,3.01-8.13,7.26c-.02,.29-.02,.58,0,.87-.22,4.25,3.05,7.87,7.3,8.09s7.87-3.05,8.09-7.3c.01-.26,.01-.53,0-.79h0Z"></path><path class="h" d="M330.16,166.25v13.19h-4.05l-.1-12.65c-.1-5.85-2.25-7.05-5.05-7.05-3.05,0-6.24,1.9-6.3,7.3v12.39h-4.09l-.1-12.65c-.05-5.85-2.25-7.05-5.2-7.05s-6.1,1.9-6.2,7.3l-.1,12.39h-4.05v-22.74h3.65v4.25c1.31-3.13,4.45-5.09,7.84-4.9,3.55,0,6.45,1.2,7.55,5.3,1.26-3.4,4.62-5.56,8.24-5.3,4.55,0,7.95,2,7.95,10.2v.02h.01Z"></path><path class="h" d="M360.79,168.05c0,7.6-4.59,11.9-10.89,11.9-3.5,.25-6.81-1.62-8.4-4.75v13.85h-4.05v-32.34h3.85v4.55c1.69-3.24,5.1-5.2,8.75-5.05,6.35,0,10.74,4.2,10.74,11.84Zm-11.84-8.05c-3.87-.2-7.16,2.77-7.36,6.64-.02,.32-.01,.64,.02,.96v.5c0,5.25,3.09,8.1,7.34,8.1s7.45-2.95,7.5-8.1c.05-5.19-3.05-8.1-7.5-8.1Z"></path><path class="h" d="M364.08,168.15c-.07-6.61,5.23-12.03,11.85-12.1,6.61-.07,12.03,5.23,12.1,11.85v.25c-.02,6.61-5.39,11.96-12.01,11.94-6.59-.02-11.92-5.35-11.94-11.94Zm19.69-.05c.24-4.25-3.01-7.89-7.26-8.13s-7.89,3.01-8.13,7.26c-.02,.29-.02,.58,0,.87-.22,4.25,3.05,7.87,7.3,8.09s7.87-3.05,8.09-7.3c.01-.26,.01-.53,0-.79h0Z"></path><path class="h" d="M413.7,166.25v13.19h-4.04l-.11-12.65c-.05-5.79-2.2-7-5.25-7-3.2,0-6.25,1.9-6.35,7.1l-.1,12.55h-4.05v-22.74h3.65v4.25c1.38-3.16,4.61-5.1,8.04-4.85,4.85,0,8.2,2,8.2,10.15h0Z"></path><path class="h" d="M441.24,169.55l-17.84,.1c.25,3.94,3.6,6.96,7.54,6.8,3.23,.2,6.36-1.18,8.4-3.7l1.65,3.15c-2.75,2.89-6.62,4.42-10.6,4.2-6.04,0-11.39-3.65-11.39-11.9-.46-6.24,4.24-11.67,10.48-12.13,.44-.03,.88-.04,1.32-.02,6.14,0,10.79,3.45,10.44,13.5Zm-17.89-2.69l13.84-.05c-.3-5.05-2.9-6.95-6.54-6.95-3.93-.04-7.18,3.07-7.3,7Z"></path><path class="h" d="M466.72,166.25v13.19h-4.05l-.1-12.65c-.05-5.79-2.2-7-5.25-7-3.2,0-6.25,1.9-6.34,7.1l-.11,12.55h-4.04v-22.74h3.65v4.25c1.39-3.16,4.61-5.1,8.05-4.85,4.85,0,8.2,2,8.2,10.15h-.01Z"></path><path class="h" d="M487.71,178.14c-1.78,1.34-3.96,2.05-6.2,2-4.5,0-6.55-2.5-6.55-8.55v-11.4h-3v-3.45h3v-8.05h4.1v8.05l7.14-.05v3.4l-7.14,.05v11.19c0,3.6,1,5.1,3.44,5.1,1.52,.02,3-.55,4.1-1.6l1.1,3.3h0Z"></path><path class="h" d="M489.01,177.9l.95-3.35c1.88,1.5,4.2,2.34,6.6,2.4,2.34,0,4.69-.9,4.69-3.45,0-2.35-1.65-3.2-4.65-4.05-4.65-1.25-6.85-3.4-6.85-7.09,0-3.9,2.59-6.3,7.69-6.3,2.68-.02,5.32,.67,7.65,2l-1.15,3.1c-1.86-1.22-4.03-1.88-6.25-1.9-2.75,0-4.05,1.1-4.05,3.1s1.35,3.1,4.7,4.05c4.05,1.1,6.75,2.85,6.75,6.95,0,4.5-3.45,6.75-8.4,6.75-2.73,.06-5.41-.7-7.69-2.2h0Z"></path></g></g></g></g></g></g></g></svg>